<svg id="fa374fc8-e55d-44d9-b51c-f17570e31913" data-name="圖層 1" xmlns="http://www.w3.org/2000/svg" viewBox="0 0 10 60"><path d="M6.07,60.12a.59.59,0,0,0,.46-.23.57.57,0,0,0,.11-.42.49.49,0,0,0,.18-.14A.59.59,0,0,0,7,59v0a1.14,1.14,0,0,0,.1-.19,1.55,1.55,0,0,0,.07-.23s0-.09.05-.13A.67.67,0,0,0,7.33,58a.57.57,0,0,0,.15-.43.74.74,0,0,0,.08-.3.65.65,0,0,0,.06-.21v0a1.59,1.59,0,0,0,.16-.4s0-.07,0-.1A.62.62,0,0,0,8,56.18.54.54,0,0,1,8,56a1.26,1.26,0,0,0,.11-.51.62.62,0,0,0,.11-.32.75.75,0,0,0,.14-.36.57.57,0,0,0,.08-.13,1,1,0,0,0,.08-.23.63.63,0,0,0,.07-.22A1.23,1.23,0,0,0,8.74,54,.63.63,0,0,0,9,53.51l0,0a2.44,2.44,0,0,0,.1-.24l0-.14a.93.93,0,0,0,.1-.37l0,0a.58.58,0,0,0,.19-.35v0a.5.5,0,0,0,.08-.2A.65.65,0,0,0,9.58,52a.57.57,0,0,0,0-.18l.06-.19a.74.74,0,0,0,.11-.24,1.14,1.14,0,0,0,.17-.27,1,1,0,0,0,.12-.42.59.59,0,0,0,0-.27h0a1.16,1.16,0,0,0,.08-.32,1,1,0,0,0-.06-.43,1.17,1.17,0,0,0-.21-.38.83.83,0,0,0-.27-.19c-.06-.06-.12-.1-.18-.15l-.27-.16a.55.55,0,0,0-.28-.07.6.6,0,0,0-.29.08l0,0a.55.55,0,0,0-.24.12.93.93,0,0,0-.26.33.61.61,0,0,0-.18.32.64.64,0,0,0-.14.22.52.52,0,0,0,0,.25.67.67,0,0,0-.12.39v.08a1,1,0,0,0-.07.15.73.73,0,0,0-.17.31h0a.58.58,0,0,0-.16.5.54.54,0,0,0-.15.4L7,52a1.25,1.25,0,0,0-.14.49.75.75,0,0,0-.1.2.62.62,0,0,0-.12.35v0a1.19,1.19,0,0,0-.09.27.25.25,0,0,1,0,.07l0,.08a1.1,1.1,0,0,0-.09.24,1.37,1.37,0,0,0-.08.35l0,.1,0,0s0,0,0,0l-.07.07a.64.64,0,0,0,0-.24.29.29,0,0,0,0-.09,1.42,1.42,0,0,0,0-.54c0-.09,0-.19,0-.29a.58.58,0,0,0,0-.14,2,2,0,0,0,0-.25c0-.09,0-.19,0-.28a.92.92,0,0,1,.07-.22l0-.1a1.93,1.93,0,0,0,.06-.49,3.53,3.53,0,0,0,0-.46v-.6h0a.59.59,0,0,0,0-.64h0a1.37,1.37,0,0,0,0-.29,1.07,1.07,0,0,0,0-.25.83.83,0,0,0,0-.43.68.68,0,0,0,0-.19.63.63,0,0,0-.15-.39v0a.53.53,0,0,0,0-.26.83.83,0,0,0,.06-.29.58.58,0,0,0-.06-.26.65.65,0,0,0,.11-.22c0-.14-.12-.32-.18-.44a.11.11,0,0,1,0-.06.91.91,0,0,0,0-.67.84.84,0,0,0-.21-.35.45.45,0,0,0-.34-.37h0a.74.74,0,0,0-.64-.51,2.22,2.22,0,0,0-.47-.17.61.61,0,0,0-.12-.16.88.88,0,0,0-.24-.19v0l-.1-.17c0-.07,0-.14,0-.2a1.55,1.55,0,0,0-.14-.29l0-.1a.69.69,0,0,0-.12-.29,2.58,2.58,0,0,0-.08-.26v0l0-.07A.89.89,0,0,0,4,42.63a.71.71,0,0,0,0-.21v-.31a.54.54,0,0,0,.12-.41.58.58,0,0,0,.15-.29,1,1,0,0,0,.08-.14.36.36,0,0,1,.08-.12l0,0,.07,0L4.7,41a1,1,0,0,0,.3-.16.65.65,0,0,0,.16-.17.47.47,0,0,0,.09-.06,1.22,1.22,0,0,0,.32-.36l.06-.11.09-.1.1-.12.09-.06a.54.54,0,0,0,.21-.3l0,0a2.08,2.08,0,0,0,.31-.44.45.45,0,0,1,.11-.14.52.52,0,0,0,.14-.21.6.6,0,0,0,.06-.19A.66.66,0,0,0,7,38a.37.37,0,0,0,0-.11s0,0,0,0a1.09,1.09,0,0,0,.13-.49.6.6,0,0,0,.08-.29s0-.08,0-.12v0a.55.55,0,0,0,0-.38v-.18a1.77,1.77,0,0,0,0-.24,1.15,1.15,0,0,0,0-.18l-.06-.25a1.35,1.35,0,0,0-.08-.24h0a.9.9,0,0,0,0-.28A.69.69,0,0,0,7,35a.58.58,0,0,0-.21-.44v-.05a.65.65,0,0,0-.27-.54v0a.67.67,0,0,0-.18-.27,1.07,1.07,0,0,0-.2-.22.53.53,0,0,0-.08-.17A.55.55,0,0,0,5.8,33a.64.64,0,0,0-.18-.25s-.24-.19-.27-.21l-.59-.35-.12,0-.08,0a2.09,2.09,0,0,0-.2-.22.24.24,0,0,1-.08-.11.64.64,0,0,0-.08-.14.57.57,0,0,0-.15-.3A.56.56,0,0,0,3.93,31v-.3a.76.76,0,0,0,0-.21.94.94,0,0,0-.08-.36l0-.07v0a2.41,2.41,0,0,0,.08-.25.81.81,0,0,0,.12-.29l0-.11a1.47,1.47,0,0,0,.14-.28c0-.07,0-.13,0-.2s.07-.11.1-.18v0a1.08,1.08,0,0,0,.24-.18.49.49,0,0,0,.1-.15.51.51,0,0,0,.15-.07A.61.61,0,0,0,5,28.1L5.11,28a2.58,2.58,0,0,0,.46-.53l.06-.11.09-.1.1-.12.09-.06a.54.54,0,0,0,.21-.3l0,0a1.9,1.9,0,0,0,.31-.45.58.58,0,0,1,.11-.13A.6.6,0,0,0,6.72,26a.6.6,0,0,0,.06-.19A.68.68,0,0,0,7,25.29a.37.37,0,0,0,0-.11,0,0,0,0,0,0,0,1.09,1.09,0,0,0,.13-.5.54.54,0,0,0,.08-.28s0-.08,0-.12v0a.55.55,0,0,0,0-.38v-.18a2,2,0,0,0,0-.25,1,1,0,0,0,0-.17L7.14,23a1.83,1.83,0,0,0-.08-.25h0a.86.86,0,0,0,0-.28.78.78,0,0,0,0-.22.58.58,0,0,0-.21-.44v-.05a.64.64,0,0,0-.27-.54v0a.71.71,0,0,0-.18-.28,1,1,0,0,0-.2-.21.71.71,0,0,0-.08-.18.58.58,0,0,0-.29-.22.64.64,0,0,0-.18-.25L5.51,20a.55.55,0,0,0-.14-.12l0,0a.48.48,0,0,0-.2-.2.52.52,0,0,0-.29-.09s-.07-.1-.1-.09h0a.58.58,0,0,0-.11-.15.84.84,0,0,0-.24-.18v0l-.1-.17c0-.07,0-.14,0-.2a1.55,1.55,0,0,0-.14-.29l0-.1a.69.69,0,0,0-.12-.29,1.83,1.83,0,0,0-.08-.25v0l0-.08A.85.85,0,0,0,4,17.35a.76.76,0,0,0,0-.21v-.3a.57.57,0,0,0,.12-.41.61.61,0,0,0,.15-.3A1,1,0,0,0,4.28,16a.24.24,0,0,1,.08-.11l.2-.22h0a.46.46,0,0,0,.32-.15.57.57,0,0,0,.26-.08.66.66,0,0,0,.19-.18l.08-.07.1-.1L5.62,15a.61.61,0,0,0,.18-.24.55.55,0,0,0,.29-.23.58.58,0,0,0,.08-.18.81.81,0,0,0,.2-.21.71.71,0,0,0,.18-.28h0l.1-.09.15-.06s0,0-.06-.07a.72.72,0,0,0,.08-.32v-.06A.58.58,0,0,0,7,12.81a.66.66,0,0,0,0-.21,1,1,0,0,0,0-.29h0a1.69,1.69,0,0,0,.08-.24l.06-.26a1,1,0,0,0,0-.17,2,2,0,0,0,0-.25v-.17a.55.55,0,0,0,0-.38v0s0-.08,0-.13a.57.57,0,0,0-.08-.28A1.05,1.05,0,0,0,7,9.92s0,0,0,0a.41.41,0,0,0,0-.11.68.68,0,0,0-.23-.52.82.82,0,0,0-.06-.19.6.6,0,0,0-.14-.21.42.42,0,0,1-.11-.13,2.13,2.13,0,0,0-.31-.45l0,0A.56.56,0,0,0,5.91,8l-.09,0c0-.05-.06-.14-.1-.13s0-.09-.09-.09l-.06-.11A.85.85,0,0,0,5.11,7L5,7a.65.65,0,0,0-.16-.17l-.15-.07a.45.45,0,0,0-.1-.14.88.88,0,0,0-.24-.19v0l-.1-.17c0-.07,0-.14,0-.2a1.55,1.55,0,0,0-.14-.29l0-.1a.69.69,0,0,0-.12-.29,2.58,2.58,0,0,0-.08-.26v0l0-.07A.93.93,0,0,0,4,4.64a.71.71,0,0,0,0-.21V4.12a.54.54,0,0,0,.12-.41.58.58,0,0,0,.15-.29,1,1,0,0,0,.08-.14.36.36,0,0,1,.08-.12A2,2,0,0,0,4.56,3h0A.57.57,0,0,0,5,2.7l.13-.05a.73.73,0,0,0,.51-.89.47.47,0,0,1,0-.12A1.58,1.58,0,0,0,5.56.83a.69.69,0,0,0-.63-.5A1,1,0,0,0,4.58.17h0a1.37,1.37,0,0,1-.2.13,1.36,1.36,0,0,1-.24.13A.54.54,0,0,0,4,.54H3.88a.61.61,0,0,0-.3.08.64.64,0,0,0-.2.2l0,0A.86.86,0,0,0,3.21,1L3.11,1a.51.51,0,0,0-.18.25.61.61,0,0,0-.3.22,1.42,1.42,0,0,0-.08.18.65.65,0,0,0-.19.21.63.63,0,0,0-.19.28h0a.66.66,0,0,0-.27.55v0a.57.57,0,0,0-.2.44,1.5,1.5,0,0,0,0,.22.86.86,0,0,0,0,.28h0L1.58,4a2.38,2.38,0,0,0-.05.26,1,1,0,0,0,0,.17.69.69,0,0,0,0,.25v.18a.59.59,0,0,0,0,.37v0a.57.57,0,0,0,0,.13.53.53,0,0,0,.07.28,1,1,0,0,0,.13.49v0s0,.08,0,.11A.69.69,0,0,0,2,6.77,1.33,1.33,0,0,0,2,7a.51.51,0,0,0,.15.21.38.38,0,0,1,.1.13,1.9,1.9,0,0,0,.31.45l0,0a.55.55,0,0,0,.22.3l.09.05a.64.64,0,0,0,.1.13l.08.09.06.11A2.14,2.14,0,0,0,3.61,9l.1.07a.57.57,0,0,0,.15.16A.51.51,0,0,0,4,9.3a.71.71,0,0,0,.1.14,1.33,1.33,0,0,0,.24.19l0,0a.81.81,0,0,0,.1.18,1.33,1.33,0,0,0,0,.19,1,1,0,0,0,.14.29v.11a1.08,1.08,0,0,0,.13.29,1.17,1.17,0,0,0,.07.25v0l0,.07a.94.94,0,0,0-.08.36.78.78,0,0,0,0,.21,1.5,1.5,0,0,0,0,.3.55.55,0,0,0-.13.41.49.49,0,0,0-.14.3.42.42,0,0,0-.09.14.52.52,0,0,1-.07.11,1.34,1.34,0,0,0-.2.21l-.08.05-.12,0-.59.34-.27.22a.56.56,0,0,0-.18.25.61.61,0,0,0-.3.22,1.42,1.42,0,0,0-.08.18.77.77,0,0,0-.19.21.63.63,0,0,0-.19.28v0a.64.64,0,0,0-.27.54v.05a.57.57,0,0,0-.2.44,1.5,1.5,0,0,0,0,.22.86.86,0,0,0,0,.28h0l-.09.25a2.21,2.21,0,0,0-.05.25,1,1,0,0,0,0,.17.69.69,0,0,0,0,.25v.18a.62.62,0,0,0,0,.38v0a.49.49,0,0,0,0,.12.53.53,0,0,0,.07.28,1.09,1.09,0,0,0,.13.5v0s0,.07,0,.11a.69.69,0,0,0,.24.51,1.05,1.05,0,0,0,.05.19.51.51,0,0,0,.15.21.5.5,0,0,1,.1.13,1.9,1.9,0,0,0,.31.45l0,0a.55.55,0,0,0,.22.3l.09.06L3,21l.08.1.06.11c.17.24.07.1.29.3a.33.33,0,0,0,.1.06.39.39,0,0,0,.16.15c.13.07.32.32.49.34,0,0,0,0,0,0l.15.16a.35.35,0,0,1,.07.11.55.55,0,0,0,.09.14.52.52,0,0,0,.14.3.58.58,0,0,0,.13.41,1.5,1.5,0,0,0,0,.3.78.78,0,0,0,0,.21.85.85,0,0,0,.08.35.59.59,0,0,1,0,.08v0a1,1,0,0,0-.07.25.86.86,0,0,0-.13.29v.1a1.11,1.11,0,0,0-.14.29,1.17,1.17,0,0,0,0,.2.59.59,0,0,0-.1.17l0,0a1.25,1.25,0,0,0-.24.18.71.71,0,0,0-.1.14l-.15.07a.61.61,0,0,0-.15.17l-.1.06a.94.94,0,0,0-.46.53l-.06.11c-.11,0-.07.1-.08.09s-.07.09-.1.13L2.82,27a.62.62,0,0,0-.22.31s0,0,0,0a2.08,2.08,0,0,0-.31.44.31.31,0,0,1-.1.13.54.54,0,0,0-.15.22A1.21,1.21,0,0,0,2,28.3a.71.71,0,0,0-.24.52s0,.07,0,.11,0,0,0,0a1.05,1.05,0,0,0-.13.49.55.55,0,0,0-.07.28.53.53,0,0,0,0,.13v0a.62.62,0,0,0,0,.38v.17a.68.68,0,0,0,0,.25,1,1,0,0,0,0,.17,2,2,0,0,0,.05.26q0,.13.09.24h0a.9.9,0,0,0,0,.28,1.27,1.27,0,0,0,0,.22.57.57,0,0,0,.2.44v.05a.69.69,0,0,0,.08.32l-.06.07.16.06.09.09v0a.6.6,0,0,0,.19.27.65.65,0,0,0,.19.21.75.75,0,0,0,.08.18.57.57,0,0,0,.3.23.53.53,0,0,0,.18.24l.1.08a.52.52,0,0,0,.11.1.27.27,0,0,0,.08.07.52.52,0,0,0,.18.18.61.61,0,0,0,.26.08.54.54,0,0,0,.33.16h0a2.09,2.09,0,0,0,.2.22.35.35,0,0,1,.07.11.42.42,0,0,0,.09.14.52.52,0,0,0,.14.3.58.58,0,0,0,.13.41,1.5,1.5,0,0,0,0,.3.78.78,0,0,0,0,.21.85.85,0,0,0,.08.35l0,.08v0a1,1,0,0,0-.07.25,1,1,0,0,0-.13.29v.1a1.11,1.11,0,0,0-.14.29,1.17,1.17,0,0,0,0,.2.59.59,0,0,0-.1.17l0,0a1.25,1.25,0,0,0-.24.18L4,38.43l-.07,0-.59.35a2.88,2.88,0,0,0-.27.22.51.51,0,0,0-.18.25.61.61,0,0,0-.3.22,1.42,1.42,0,0,0-.08.18.65.65,0,0,0-.19.21.63.63,0,0,0-.19.28v0a.63.63,0,0,0-.27.54v.05a.57.57,0,0,0-.2.44,1.5,1.5,0,0,0,0,.22.86.86,0,0,0,0,.28h0L1.58,42a2.38,2.38,0,0,0-.05.26,1,1,0,0,0,0,.17.69.69,0,0,0,0,.25v.18a.59.59,0,0,0,0,.37v0a.57.57,0,0,0,0,.13.53.53,0,0,0,.07.28,1,1,0,0,0,.13.49v0s0,.08,0,.11a.69.69,0,0,0,.24.52A1.33,1.33,0,0,0,2,45a.51.51,0,0,0,.15.21.38.38,0,0,1,.1.13,1.9,1.9,0,0,0,.31.45s0,0,0,0a.55.55,0,0,0,.22.3l.09.05a.64.64,0,0,0,.1.13l.08.09.06.11c.17.25.07.11.29.31l.1.06a.54.54,0,0,0,.15.15,2.22,2.22,0,0,0,.16,1,.86.86,0,0,0,0,.28.67.67,0,0,0,0,.24.6.6,0,0,0,0,.19A.83.83,0,0,0,4,49l0,.06a1.26,1.26,0,0,0,.08.43s0,0,0,0a1.14,1.14,0,0,0-.06.55.58.58,0,0,0,0,.48c0,.05,0,.11,0,.16a.58.58,0,0,0,0,.19,1.09,1.09,0,0,0-.07.35.2.2,0,0,0,0,.07.13.13,0,0,0,0,.06.86.86,0,0,0,0,.24.14.14,0,0,1,0,.06,1.06,1.06,0,0,0,0,.43.71.71,0,0,0-.09.28l0,0-.07-.06a.65.65,0,0,1,0-.1.69.69,0,0,0-.14-.3.58.58,0,0,0-.21-.28l0,0a.79.79,0,0,0-.08-.16l0-.06a.08.08,0,0,1,0,0A1,1,0,0,0,3.16,51l0-.07,0-.06A.6.6,0,0,0,3,50.65a1.43,1.43,0,0,0-.08-.22,1.62,1.62,0,0,0-.1-.18.55.55,0,0,0-.1-.37.27.27,0,0,1-.05-.12.55.55,0,0,0-.2-.39l-.16-.16A1.35,1.35,0,0,0,2,48.94a.65.65,0,0,0-.3-.09l-.15-.07a.59.59,0,0,0-.22-.05.58.58,0,0,0-.36.12.77.77,0,0,0-.35.22.77.77,0,0,0-.18.18,1.13,1.13,0,0,0-.12.21v0l-.06.1a.56.56,0,0,0,0,.44c0,.08.05.16.08.25a1.66,1.66,0,0,0,.15.33.49.49,0,0,0,.16.21A.65.65,0,0,0,.69,51a.55.55,0,0,0,.12.35.51.51,0,0,0,.09.22v0a1.29,1.29,0,0,0,0,.19.56.56,0,0,0,.11.2.31.31,0,0,0,.06.13.52.52,0,0,0,.16.37v0a1.14,1.14,0,0,0,.09.26,1.16,1.16,0,0,0,.13.22.52.52,0,0,0,.06.16.5.5,0,0,1,0,.13.55.55,0,0,0,.22.32v0l.06.17a1.12,1.12,0,0,1,0,.15.69.69,0,0,0,.29.4s0,0,0,.06l.06.19a.57.57,0,0,0,0,.36.55.55,0,0,0,.18.22.6.6,0,0,0,.07.18.61.61,0,0,0,.09.23.73.73,0,0,0,.17.31.51.51,0,0,0,0,.09.44.44,0,0,0,.11.24.64.64,0,0,0,.22.19.84.84,0,0,0,.13.27l0,.06h0a1.72,1.72,0,0,0,.07.21.88.88,0,0,0,0,.16,1.15,1.15,0,0,0,.19.36.61.61,0,0,0,.07.1.61.61,0,0,0,.31.52,3.24,3.24,0,0,0,.17.32.6.6,0,0,0,.24.4,1.23,1.23,0,0,0,.16.35.73.73,0,0,0,.16.36.57.57,0,0,0,.4.41.9.9,0,0,0,.57.2A.88.88,0,0,0,6.07,60.12Z" transform="translate(-0.2 -0.17)"/></svg>