<svg id="a80f96eb-e65d-4aa0-9bfd-5c2f8abe5d5f" data-name="圖層 1" xmlns="http://www.w3.org/2000/svg" viewBox="0 0 10.01 6.04"><defs><style>.f0bd308e-777e-4f8f-b485-389882765efa{fill:#231815;}</style></defs><path class="f0bd308e-777e-4f8f-b485-389882765efa" d="M10.2,1.57h0a.27.27,0,0,0-.11-.18l0,0a.32.32,0,0,0-.39-.22H9.61a.69.69,0,0,0-.35,0,.3.3,0,0,0-.21.28A.47.47,0,0,0,9,1.59H9a.2.2,0,0,0-.07.06.39.39,0,0,0-.08.1h0l-.08,0-.09,0-.12.06h0A.27.27,0,0,0,8.36,2a.27.27,0,0,0-.12,0h0a.28.28,0,0,0-.15,0L8,2a.33.33,0,0,0-.14,0,.23.23,0,0,0-.18-.06.2.2,0,0,0-.13-.06l-.06,0,0,0-.09-.09h0a.27.27,0,0,0-.11-.18.14.14,0,0,1,0-.06A.36.36,0,0,0,7,1.24H7v0a.22.22,0,0,0,0-.13A.3.3,0,0,0,6.91,1V1L6.84.91l0,0A.21.21,0,0,0,6.7.79.26.26,0,0,0,6.6.66l-.08,0A.24.24,0,0,0,6.43.54.2.2,0,0,0,6.31.46h0A.3.3,0,0,0,6.06.33H6A.28.28,0,0,0,5.85.24l-.1,0a.25.25,0,0,0-.12,0h0L5.52.2l-.11,0H5.33a.2.2,0,0,0-.11,0H5.15A.25.25,0,0,0,5,.17H4.92a.28.28,0,0,0-.13,0,.5.5,0,0,0-.21,0H4.52a.29.29,0,0,0-.23.1l-.08,0a.22.22,0,0,0-.09.07l-.06,0a1.21,1.21,0,0,0-.2.14h0a.28.28,0,0,0-.14.1s0,0,0,0-.06,0,0,0-.05,0-.05,0l0,0a.38.38,0,0,0-.24.2.05.05,0,0,0,0,0,.27.27,0,0,0-.08.07.23.23,0,0,0,0,.14v0a.34.34,0,0,0,0,.12.37.37,0,0,0,0,.11.18.18,0,0,0-.07,0,.39.39,0,0,0-.08.1h0l-.08,0-.08,0-.13.06h0A.31.31,0,0,0,2.46,2a.2.2,0,0,0-.11,0h0a.32.32,0,0,0-.16,0L2.06,2a.29.29,0,0,0-.13,0,.25.25,0,0,0-.18-.06.25.25,0,0,0-.13-.06l-.06,0-.05,0-.1-.09h0a.21.21,0,0,0-.11-.18.14.14,0,0,1,0-.06.33.33,0,0,0-.39-.22H.84a.63.63,0,0,0-.36,0,.32.32,0,0,0-.22.27,1.11,1.11,0,0,0-.07.16h0a.41.41,0,0,1,0,.09l.06.1a.36.36,0,0,0,0,.09V2a.22.22,0,0,0,0,.13l.08.09h0l.06.06,0,.05a.26.26,0,0,0,.11.07.27.27,0,0,0,.1.13l.08,0A.24.24,0,0,0,1,2.63a.27.27,0,0,0,.12.09h0a.3.3,0,0,0,.24.12h0a.25.25,0,0,0,.19.09h.1l.12,0h0l.11,0L2,3h.26A.33.33,0,0,0,2.4,3h.06a.2.2,0,0,0,.13,0,.5.5,0,0,0,.21-.05h.06a.3.3,0,0,0,.23-.11l.08,0a.2.2,0,0,0,.09-.06l.06,0a1.13,1.13,0,0,0,.2-.13v0a.28.28,0,0,0,.14-.1s0,0,0,0l.06,0s0,0,0,0l0,0a.27.27,0,0,0,.24-.21.05.05,0,0,0,0,0A.27.27,0,0,0,4.17,2a.23.23,0,0,0,0-.14v0a.5.5,0,0,0,0-.13.37.37,0,0,0,0-.11l.07,0a.76.76,0,0,0,.08-.11h0l.08,0,.08,0,.13-.06h0l.13-.05.11,0H5l0,0a.45.45,0,0,0,.16,0h.22a.24.24,0,0,0,.18.05.28.28,0,0,0,.13.07l.07,0,0,0L6,1.5a.35.35,0,0,0,.19.25h0l.06.1a.36.36,0,0,0,0,.09V2a.31.31,0,0,0,0,.13l.09.09h0l.06.06,0,.05a.26.26,0,0,0,.11.07.22.22,0,0,0,.1.13l.08,0a.24.24,0,0,0,.09.08A.27.27,0,0,0,7,2.72H7a.29.29,0,0,0,.23.12h0a.25.25,0,0,0,.19.09h.1l.12,0h0l.11,0,.11,0h.26A.33.33,0,0,0,8.3,3h.06a.2.2,0,0,0,.13,0,.54.54,0,0,0,.21-.05h.06A.27.27,0,0,0,9,2.81l.09,0,.09-.06.06,0a.8.8,0,0,0,.19-.13l0,0a.26.26,0,0,0,.13-.1l0,0,.05,0,0,0,.05,0A.25.25,0,0,0,10,2.08l0,0L10.06,2a.24.24,0,0,0,0-.14v0a.5.5,0,0,0,0-.13.37.37,0,0,0,0-.11Z" transform="translate(-0.19 -0.15)"/><path class="f0bd308e-777e-4f8f-b485-389882765efa" d="M10.2,4.74a.25.25,0,0,0-.11-.17l0-.06a.31.31,0,0,0-.39-.21H9.61a.69.69,0,0,0-.35,0,.32.32,0,0,0-.21.29A.39.39,0,0,0,9,4.77H9a.18.18,0,0,0-.07.05.44.44,0,0,0-.08.11h0L8.74,5,8.65,5a.34.34,0,0,0-.12.06h0a.26.26,0,0,0-.12,0l-.12,0h0l0,0-.15,0H7.82a.23.23,0,0,0-.18,0A.21.21,0,0,0,7.51,5L7.45,5a.09.09,0,0,1,0,0l-.09-.09h0a.29.29,0,0,0-.11-.18l0,0A.32.32,0,0,0,7,4.42H7v0a.2.2,0,0,0,0-.13.24.24,0,0,0-.08-.09h0l-.06-.06,0,0L6.7,4a.26.26,0,0,0-.1-.13l-.08,0a.38.38,0,0,0-.09-.09.36.36,0,0,0-.12-.08h0a.27.27,0,0,0-.24-.12H6a.25.25,0,0,0-.19-.09h-.1l-.12,0h0l-.11,0-.11,0H5.15a.25.25,0,0,0-.17,0H4.92a.28.28,0,0,0-.13,0,.39.39,0,0,0-.21.06H4.52a.33.33,0,0,0-.23.1l-.08,0a.15.15,0,0,0-.09.06l-.06,0a1.13,1.13,0,0,0-.2.13v0a.28.28,0,0,0-.14.1l0,0s-.06,0,0,0-.05,0-.05,0l0,0a.38.38,0,0,0-.24.2l0,0-.08.07a.28.28,0,0,0,0,.15v0a.56.56,0,0,0,0,.12.54.54,0,0,0,0,.11L3,4.82a.44.44,0,0,0-.08.11h0L2.84,5,2.76,5a.31.31,0,0,0-.13.06h0a.29.29,0,0,0-.13,0l-.11,0h0l0,0a.45.45,0,0,0-.16,0H1.93a.24.24,0,0,0-.18,0A.28.28,0,0,0,1.62,5L1.56,5a.06.06,0,0,1-.05,0l-.1-.09h0c0-.08,0-.12-.11-.18l0,0a.32.32,0,0,0-.39-.23H.84a.87.87,0,0,0-.36,0,.32.32,0,0,0-.22.28.77.77,0,0,0-.07.16h0a.35.35,0,0,1,0,.08L.31,5a.2.2,0,0,0,0,.08v0a.2.2,0,0,0,0,.13.24.24,0,0,0,.08.09h0a.17.17,0,0,0,.06.06l0,.05a.28.28,0,0,0,.11.08.32.32,0,0,0,.1.13s0,0,.08,0A.2.2,0,0,0,1,5.81a.36.36,0,0,0,.12.08h0A.29.29,0,0,0,1.32,6h0a.25.25,0,0,0,.19.09h.1l.12,0h0l.11,0,.11,0h.08a.4.4,0,0,0,.11,0h.07a.25.25,0,0,0,.17,0h.06a.28.28,0,0,0,.13,0,.39.39,0,0,0,.21-.06h.06A.29.29,0,0,0,3.09,6l.08,0a.22.22,0,0,0,.09-.07l.06,0a1.21,1.21,0,0,0,.2-.14v0a.26.26,0,0,0,.14-.09l0,0,.06-.05,0,0,0,0a.27.27,0,0,0,.24-.2.08.08,0,0,0,0,0,.27.27,0,0,0,.08-.07.24.24,0,0,0,0-.15V5a.42.42,0,0,0,0-.12.37.37,0,0,0,0-.11l.07,0,.08-.1h0l.08,0,.08,0a.31.31,0,0,0,.13-.06h0a.31.31,0,0,0,.13-.06l.11,0h0a.47.47,0,0,0,.16,0l.09,0h.13a.3.3,0,0,0,.18.06.38.38,0,0,0,.13.06l.07,0,0,0L6,4.67a.31.31,0,0,0,.19.25h0L6.21,5a.2.2,0,0,0,0,.08v0a.28.28,0,0,0,0,.13.38.38,0,0,0,.09.09h0a.17.17,0,0,0,.06.06l0,.05a.28.28,0,0,0,.11.08.26.26,0,0,0,.1.13.19.19,0,0,0,.08,0,.2.2,0,0,0,.09.09A.36.36,0,0,0,7,5.89H7A.28.28,0,0,0,7.21,6h0a.25.25,0,0,0,.19.09h.1l.12,0h0l.11,0,.11,0H8a.34.34,0,0,0,.1,0h.08a.25.25,0,0,0,.17,0h.06a.28.28,0,0,0,.13,0,.42.42,0,0,0,.21-.06h.06A.26.26,0,0,0,9,6l.09,0,.09-.07.06,0a.85.85,0,0,0,.19-.14l0,0a.24.24,0,0,0,.13-.09l0,0,.05-.05,0,0,.05,0a.25.25,0,0,0,.23-.2l0,0,.07-.07a.25.25,0,0,0,0-.15V5a.42.42,0,0,0,0-.12.37.37,0,0,0,0-.11h0Z" transform="translate(-0.19 -0.15)"/></svg>