<svg id="f562d8ad-1e28-4c26-82f1-237f4ab28f05" data-name="圖層 1" xmlns="http://www.w3.org/2000/svg" viewBox="0 0 482.31 121.28"><defs><style>.fabdeba6-f0c0-4f71-b28a-e15bfaefa798{fill:#231815;}</style></defs><path class="fabdeba6-f0c0-4f71-b28a-e15bfaefa798" d="M51.72,38.06l0-.09a4.35,4.35,0,0,0,0-.63A2.61,2.61,0,0,0,51.36,36a4.71,4.71,0,0,0-.63-2.34.41.41,0,0,0,0-.09,3.27,3.27,0,0,0,0-.54,2.9,2.9,0,0,0-1.15-2.4,4.52,4.52,0,0,0-.25-.89,2.39,2.39,0,0,0-.73-1,1.86,1.86,0,0,1-.52-.58,8.26,8.26,0,0,0-1.5-2l-.2-.16a2.35,2.35,0,0,0-1.07-1.36,2.48,2.48,0,0,0-.44-.2,4.37,4.37,0,0,0-.49-.56l-.43-.41c-.09-.18-.18-.35-.28-.51a2.4,2.4,0,0,0-2.25-2.3,3,3,0,0,0-.47-.25,2.47,2.47,0,0,0-.77-.7,2.54,2.54,0,0,0-1.61-.28l-.26.05a3.85,3.85,0,0,0-1.38-.27,4.35,4.35,0,0,0-1.29-.44,2.12,2.12,0,0,1-.55-.23,2.46,2.46,0,0,0-1.34-.31,1.31,1.31,0,0,1-1.21-.56,2.4,2.4,0,0,0-2-.87,5.06,5.06,0,0,1-.77-.05l-1.2-.16a10.26,10.26,0,0,0-1.66-.08l-.72.06h0a3.06,3.06,0,0,0-1.48-.13,4.74,4.74,0,0,0-.72.18h-.39a3.37,3.37,0,0,0-.55,0h0a2.75,2.75,0,0,0-.86,0,3,3,0,0,0-.79.23,9.4,9.4,0,0,0-1.21.64,5.12,5.12,0,0,0-1,.05,4.38,4.38,0,0,0-.87.24,5.58,5.58,0,0,0-1.68,0,4.33,4.33,0,0,0-1,.27h-.17a7.66,7.66,0,0,0-1.33.1,3.31,3.31,0,0,0-1.26.49,7.48,7.48,0,0,0-1.56,1.35,3.44,3.44,0,0,0-2,3,7.36,7.36,0,0,0,.11,1.25s0,.07,0,.1A5.27,5.27,0,0,0,9,26.61H9a2.75,2.75,0,0,0,.16,2.11.49.49,0,0,1,.07.23,5.55,5.55,0,0,0,.32,1.6l0,.14a2.7,2.7,0,0,0,.3,1.87,5.93,5.93,0,0,0-.09,1.07,8.88,8.88,0,0,0,.09,1.24,2.84,2.84,0,0,0,0,2.22,9.37,9.37,0,0,0,.11,1.2,4.63,4.63,0,0,0,.13,1,23.91,23.91,0,0,1-.12,2.39c-.09.94-.17,1.9-.21,2.85a2.47,2.47,0,0,0,.45,1.6,4.42,4.42,0,0,0,0,1c.05.62.1,1.2.17,1.75a9.62,9.62,0,0,1,.08,1.22,4.58,4.58,0,0,0-.13,1.12,3.81,3.81,0,0,0,.12,1,3.25,3.25,0,0,0-.09,1.51l0,.25A3.8,3.8,0,0,0,10.45,56a4.46,4.46,0,0,0,.07.65c0,.08,0,.16,0,.26a3.25,3.25,0,0,0,0,.44,4.06,4.06,0,0,0,.23,1.37,6.43,6.43,0,0,0-.36,2.09,3.05,3.05,0,0,0,.16,1,3.4,3.4,0,0,0,0,.45,7.88,7.88,0,0,0,.17,1.7,2.88,2.88,0,0,0,0,1.81c-.11.26-.2.48-.26.65a2.74,2.74,0,0,0,.13,2.37v.41a2.35,2.35,0,0,0,1.29,2.18,2.26,2.26,0,0,0,1.52,1.17,2.31,2.31,0,0,0,1.48.64,8,8,0,0,0,1.62,0,2.59,2.59,0,0,0,1.33.14,3.11,3.11,0,0,0,.95-.31,3.64,3.64,0,0,0,.39-.23,3.37,3.37,0,0,0,1.82-1,1.33,1.33,0,0,1,.3-.06,6.33,6.33,0,0,0,1.47-.42,10.24,10.24,0,0,0,1.77-.75l.08,0,.4,0a3.31,3.31,0,0,0,1.79-.91l.09,0a4.5,4.5,0,0,0,.76-.2l.38,0a3.22,3.22,0,0,0,1.7-.82,5.51,5.51,0,0,1,2.51-1.28,3.41,3.41,0,0,0,2-1.35,6.09,6.09,0,0,1,.87-.18,3.27,3.27,0,0,0,1.73-.84,11,11,0,0,1,1-.82c.38-.28.75-.54,1.18-.81a4.43,4.43,0,0,0,.9-.58,2.19,2.19,0,0,0,.36,0,3.16,3.16,0,0,0,1.46-.6,3.5,3.5,0,0,0,1-1.12l.15-.12a3.57,3.57,0,0,0,.67-.73,6.75,6.75,0,0,0,.52-.44,3.33,3.33,0,0,0,.88-1.33A3.48,3.48,0,0,0,46.21,57,3.29,3.29,0,0,0,46.6,56a4.38,4.38,0,0,0,1-1.18,3.63,3.63,0,0,0,.92-1.48.41.41,0,0,0,.05-.09,3.72,3.72,0,0,0,1.32-2.83V50.2a3.24,3.24,0,0,0,1-2.3,3.64,3.64,0,0,0-.15-1,4.74,4.74,0,0,0,.23-1.42v0a12.89,12.89,0,0,0,.4-1.24,8.9,8.9,0,0,0,.28-1.3,4.34,4.34,0,0,0,0-.86,3.79,3.79,0,0,0,0-1.22q0-.45,0-.87A2.83,2.83,0,0,0,51.72,38.06ZM39.86,43.45a10.73,10.73,0,0,0,0,1.5,3.12,3.12,0,0,0-.62,2.1,3.38,3.38,0,0,0-.71,1.57,3.16,3.16,0,0,0-.41.74,1.93,1.93,0,0,1-.37.61,10.59,10.59,0,0,0-1,1.19,4.6,4.6,0,0,0-.45.32l-.42.36a3.46,3.46,0,0,0-1.2.88A4.38,4.38,0,0,0,34,53.78l-.24.19c-.27.24-.55.46-.82.68h0a3.1,3.1,0,0,0-.68,0,3.28,3.28,0,0,0-2,1.12s-.44.5-.47.54a10.47,10.47,0,0,0-1.15.53,1.74,1.74,0,0,0-.26.15,6.11,6.11,0,0,0-.62.46c-.22.09-.48.2-.77.34l-.31,0a3.12,3.12,0,0,0-1.4.59,5.79,5.79,0,0,0-.59.47l-.32.17a2.74,2.74,0,0,0-.64,0,3.08,3.08,0,0,0-1.08.37,2.93,2.93,0,0,0,.1-1.37c0-.25-.12-.65-.23-1.19a4.9,4.9,0,0,0-.33-1.51c0-.19,0-.37,0-.56a3.54,3.54,0,0,0,0-.46,3.73,3.73,0,0,0-.13-2.71.82.82,0,0,1,0-.11v-.64a3.37,3.37,0,0,0-.26-1.31c0-.41,0-.81.05-1.21a9.18,9.18,0,0,0-.25-2.81.36.36,0,0,0,0-.11,2.82,2.82,0,0,0-.06-2,3.26,3.26,0,0,0,.21-1.11,3.55,3.55,0,0,0-.22-1.28,3.55,3.55,0,0,0-.09-.47c0-.08,0-.18-.05-.32,0-.36-.09-.74-.13-1.14s-.06-.54-.08-.78a2.84,2.84,0,0,0,0-2.27,2.39,2.39,0,0,1-.14-1.28A9.51,9.51,0,0,0,21,31.94a2.86,2.86,0,0,0-.07-2.35,3.25,3.25,0,0,0,.17-.91,4.17,4.17,0,0,0,.57-.26l.28-.17a1.43,1.43,0,0,0,.29,0,4.1,4.1,0,0,0,1.26-.4,2.6,2.6,0,0,0,.68,0l.2,0a2.49,2.49,0,0,0,1.75.35,2.77,2.77,0,0,0,.48-.11l.54.19.31.08a2.49,2.49,0,0,0,1.8.89,2.38,2.38,0,0,0,1.74.89,3.84,3.84,0,0,0,.48,0l.07.06a2.56,2.56,0,0,0,.48.33,2.44,2.44,0,0,0,2.11.7,2.41,2.41,0,0,0,1.31.8,3.5,3.5,0,0,0,.46.39,2.44,2.44,0,0,0,.64.88,4.57,4.57,0,0,0,1.19.75.37.37,0,0,0,.05.11,4.24,4.24,0,0,0,.5.79,9.25,9.25,0,0,0,.25.94,4.36,4.36,0,0,0,.68,1.32,4,4,0,0,0,.09.5,3.52,3.52,0,0,0,.6,1.35,6.82,6.82,0,0,0,.36,1.19l0,.1-.17.38a4.72,4.72,0,0,0-.38,1.79A3.29,3.29,0,0,0,39.86,43.45Z"/><path class="fabdeba6-f0c0-4f71-b28a-e15bfaefa798" d="M124.2,13.54a5,5,0,0,0,.37-1.61,5.56,5.56,0,0,0-.28-2.12,4.52,4.52,0,0,0-1.05-1.76,3.55,3.55,0,0,0-1.32-.86,6.73,6.73,0,0,0-.9-.64c-.4-.23-.83-.46-1.31-.68a2.62,2.62,0,0,0-1.38-.25,3,3,0,0,0-1.44.51l-.13.09a3.1,3.1,0,0,0-1.19.69,5.12,5.12,0,0,0-1.27,1.77,3.12,3.12,0,0,0-.91,1.65,3.28,3.28,0,0,0-.69,1.13,2.89,2.89,0,0,0-.16,1.23,3.79,3.79,0,0,0-.55,2v.23l-.09.2c-.11.24-.21.5-.32.76a4.76,4.76,0,0,0-.87,1.58l0,.06a3,3,0,0,0-.79,2.54,3,3,0,0,0-.78,2,3.94,3.94,0,0,0-.1.47,6,6,0,0,0-.7,2.48,3.54,3.54,0,0,0-.51,1,3,3,0,0,0-.58,1.77V28a5.39,5.39,0,0,0-.46,1.36c0,.08,0,.19-.08.35l-.18.43a11.91,11.91,0,0,0-.44,1.18,14.18,14.18,0,0,0-.39,1.78,2.17,2.17,0,0,1-.17.51,1.6,1.6,0,0,0-.1.23,1.42,1.42,0,0,1-.08.18,3.13,3.13,0,0,0-1,2.25v.06a3.6,3.6,0,0,0-.67,1.53,6.39,6.39,0,0,0-.85,1.38,4.64,4.64,0,0,0-.47,1.51,5.38,5.38,0,0,0-.48.87,6.37,6.37,0,0,0-.37,1.09l-.17-.21h0a4.08,4.08,0,0,0-.8-1.16c-.13-.15-.29-.32-.49-.51a2.74,2.74,0,0,0-.28-.89v-.28a2.57,2.57,0,0,0-1-2.07,9,9,0,0,0-.34-.94,2.57,2.57,0,0,0-.65-.91l-.33-.3c-.21-.63-.45-1.27-.71-1.91a5.74,5.74,0,0,1-.42-1.6,2.6,2.6,0,0,0-.63-1.44c0-.12-.06-.25-.1-.37a2.55,2.55,0,0,0-1-1.91A2.54,2.54,0,0,0,93.37,26a1,1,0,0,1-.36-.3,1.44,1.44,0,0,1-.12-.46,2.56,2.56,0,0,0-.66-1.38,2.44,2.44,0,0,0-1-1.29,1,1,0,0,0-.17-.1,3.86,3.86,0,0,0-.37-.73q-.14-.21-.18-.3l0-.19a4.61,4.61,0,0,0-.53-1.83,1.49,1.49,0,0,0-.18-.3l-.22-.3a3.94,3.94,0,0,0-.32-.89,4.76,4.76,0,0,0-.39-1c-.15-.28-.31-.54-.49-.82a2.6,2.6,0,0,0-.46-1.81,1.22,1.22,0,0,1-.27-.55,2.52,2.52,0,0,0-1-1.84,10.11,10.11,0,0,1-.8-.69,6.83,6.83,0,0,0-1.57-1.14,2.61,2.61,0,0,0-1.48-.28,5.1,5.1,0,0,0-.73-.3,2.62,2.62,0,0,0-1.11-.11,3.17,3.17,0,0,0-1.74.78,4.38,4.38,0,0,0-1.71,1.24,5.59,5.59,0,0,0-.67.71h0a2.47,2.47,0,0,0-2.53-1.66A3.69,3.69,0,0,0,72.83,10,3.11,3.11,0,0,0,71,9.66h0a5.18,5.18,0,0,0-2.21-.22,3.18,3.18,0,0,0-2,1.11l-.86.18a4.83,4.83,0,0,0-.64-.22,6.69,6.69,0,0,0-2-.26l-.29,0a3.21,3.21,0,0,0-1.77.84c-.22.2-.42.4-.6.58h-.18a2.51,2.51,0,0,1-.39,0,3.49,3.49,0,0,0-.56,0,3.12,3.12,0,0,0-1.58.69l-.31,0a3.15,3.15,0,0,0-1.71.8,5.29,5.29,0,0,0-2.13,1,3.32,3.32,0,0,0-2.31,1.63,9,9,0,0,0-.79,1.75q-.15.48-.33,1a2.7,2.7,0,0,0,.38,2.65,6.22,6.22,0,0,0,.58.62h0a2.4,2.4,0,0,0,1.65,2.13,3.31,3.31,0,0,0,2.37.56,5.2,5.2,0,0,0,2-.7,8.39,8.39,0,0,0,.2,1.17,1.8,1.8,0,0,1,.06.32,3.52,3.52,0,0,0-.33,2,5.48,5.48,0,0,0,.06.61,2.72,2.72,0,0,0-.09.49,2.9,2.9,0,0,0,.09,1.18,3,3,0,0,0,0,1.07,2.64,2.64,0,0,0,.46,2.15l0,0a2,2,0,0,1,.07.49c0,.33,0,.66-.05,1l0,.15a2.93,2.93,0,0,0-.08,2.21,5.82,5.82,0,0,0-.18,1.45,9.1,9.1,0,0,0,.25,2.11,2.91,2.91,0,0,0-.16,2.55,4.68,4.68,0,0,1,.28,1.88,13.93,13.93,0,0,0,.25,3,4.26,4.26,0,0,0-.15,1.09,2.69,2.69,0,0,0,.33,1.29,2.62,2.62,0,0,1,0,.28,7.82,7.82,0,0,0,.1,1.33l0,.16-.13.36a2.9,2.9,0,0,0-.17,1.52,3.6,3.6,0,0,0-.3,1.35,6.9,6.9,0,0,0-1.44.41,3.34,3.34,0,0,0-1.52,1.26A5.44,5.44,0,0,0,53.45,58a3.24,3.24,0,0,0-.61,1.46,4.63,4.63,0,0,0,.25,2.59,2.64,2.64,0,0,0,.34,1.64,4.37,4.37,0,0,0,1.84,1.73,6.73,6.73,0,0,0,1.9.62,2.75,2.75,0,0,0,.81,0,3,3,0,0,0,1.41-.56c.12,0,.23,0,.35,0a7.49,7.49,0,0,0,1.51-.35,11.76,11.76,0,0,1,1.44-.39l.14,0a14.61,14.61,0,0,1,1.53-.27l.72-.07a9.81,9.81,0,0,0,1.47-.29,2.71,2.71,0,0,0,1.59.3,3.24,3.24,0,0,0,.65-.16,2.57,2.57,0,0,0,.56-.26,2.3,2.3,0,0,0,.55-.13,2.11,2.11,0,0,0,.56,0,3.59,3.59,0,0,0,.57-.11,2.5,2.5,0,0,0,.61,0,3.08,3.08,0,0,0,1-.28,3.5,3.5,0,0,0,.49-.29,4.74,4.74,0,0,0,1-.34l.35-.18.57-.18h.27a3.15,3.15,0,0,0,1.51-.61,5.48,5.48,0,0,0,2-1.14,2.83,2.83,0,0,0,.24-.25,6.11,6.11,0,0,0,.62-.86c.15-.26.31-.51.47-.77s.43-.71.6-1,.26-.52.31-.63a2.77,2.77,0,0,0-.29-3s0,0,0-.06A4,4,0,0,0,80,52.53a3.76,3.76,0,0,1-.25-.31A2.5,2.5,0,0,0,77,50.57a3.67,3.67,0,0,0-.87.2,3.88,3.88,0,0,0-1.23,0l-.47.07-.24,0a2.28,2.28,0,0,0-.69,0,3.1,3.1,0,0,0-1.53.62,3.24,3.24,0,0,0-.59.58,8.64,8.64,0,0,0-.81.33l-.18,0a3.19,3.19,0,0,0,.13-.81,2.57,2.57,0,0,0-.72-1.88,2.6,2.6,0,0,0-.16-1,3,3,0,0,0-.06-1.11c0-.25,0-.5,0-.74a6.54,6.54,0,0,0-.12-1.25,2.68,2.68,0,0,0-.07-.27,3.09,3.09,0,0,0,0-.43,2.79,2.79,0,0,0-.14-1.67,3.37,3.37,0,0,0-.33-.6l-.06-.32a3.87,3.87,0,0,0,0-1.27,1.43,1.43,0,0,0,0-.22,3,3,0,0,0,.33-1.17A2.71,2.71,0,0,0,69,38.38v-.23l0-.1a2.88,2.88,0,0,0-.11-2.71l0-.8a1.32,1.32,0,0,1,0-.44,2.7,2.7,0,0,0-.24-2.17s0,0,0-.06a3,3,0,0,0,0-2.17,12.07,12.07,0,0,0,.09-1.52,6.12,6.12,0,0,0-.17-1.46c0-.07,0-.12,0-.16a5.44,5.44,0,0,0,.34-1.9,3.78,3.78,0,0,0-.19-1.23,3.45,3.45,0,0,0,0-.64,3.93,3.93,0,0,0-.06-.69s0-.05,0-.08a3,3,0,0,0,0-.52.66.66,0,0,1,0-.14,5.48,5.48,0,0,1,1.28.09,3.05,3.05,0,0,0,.8,0,3.2,3.2,0,0,0,1.58-.66,3.51,3.51,0,0,0,2-1.25,3,3,0,0,1,.51-.25,3.24,3.24,0,0,0,1.3-.9c.11.22.23.44.36.65a3,3,0,0,0,.77.94,4.08,4.08,0,0,0,.38,1,2.56,2.56,0,0,0,.57,1.65,3.15,3.15,0,0,0,.44,1l.08.13a3,3,0,0,0,.16.92,3,3,0,0,0,.55.95,2.78,2.78,0,0,0,.29.6,2.53,2.53,0,0,0,.8,1.77.5.5,0,0,1,0,.13,10.37,10.37,0,0,0,.46,1.24,4.56,4.56,0,0,0,.62,1c.09.25.19.5.3.74a3.73,3.73,0,0,1,.22.61,2.52,2.52,0,0,0,1.08,1.49.78.78,0,0,1,0,.14l.27.78a5.08,5.08,0,0,1,.18.73,2.76,2.76,0,0,0,1.39,1.82,2.45,2.45,0,0,0,.08.29,5.93,5.93,0,0,0,.29.9,2.72,2.72,0,0,0,.23,1.76,2.41,2.41,0,0,0,.89,1,3.28,3.28,0,0,0,.34.88,3.11,3.11,0,0,0,.45,1.07A3.15,3.15,0,0,0,88.37,44c0,.14,0,.28.08.44A2.5,2.5,0,0,0,89,45.6a3.31,3.31,0,0,0,1.07.84,4,4,0,0,0,.67,1.24,2,2,0,0,0,.24.26v0a7.21,7.21,0,0,0,.35,1,3.33,3.33,0,0,0,.1.78,4.39,4.39,0,0,0,.92,1.67,4.27,4.27,0,0,0,.35.46,2.62,2.62,0,0,0,1.52,2.42,11.74,11.74,0,0,0,.86,1.52,2.51,2.51,0,0,0,1.15,1.82A6.63,6.63,0,0,0,97,59.31,3.33,3.33,0,0,0,97.85,61a2.47,2.47,0,0,0,2,1.85,4.06,4.06,0,0,0,2.81.72,5.28,5.28,0,0,0,1.62-.41,3.14,3.14,0,0,0,2.26-1.34,3,3,0,0,0,.55-2.11,3.22,3.22,0,0,0,.9-.79,3,3,0,0,0,.67-1.88s0-.08,0-.13a4.87,4.87,0,0,0,.48-1c.14-.38.27-.77.39-1.18.06-.22.13-.45.2-.67a3.33,3.33,0,0,0,.71-1.78,3.07,3.07,0,0,0,.74-2.18,4.4,4.4,0,0,0,.4-1.5,3.78,3.78,0,0,0,.31-1.07.59.59,0,0,0,0-.13,8.59,8.59,0,0,0,.8-2,2.78,2.78,0,0,0,.08-.49,3.17,3.17,0,0,0,.89-2,2.87,2.87,0,0,1,.21-1,6.44,6.44,0,0,0,.56-2.59,2.91,2.91,0,0,0,.51-1.59,3.68,3.68,0,0,0,.72-1.83,6.47,6.47,0,0,0,.4-.7,4.08,4.08,0,0,0,.36-1.14,3.36,3.36,0,0,0,.38-1.1,5.81,5.81,0,0,0,.56-1.36,3.13,3.13,0,0,0,1.09-2.24c0-.05,0-.11.08-.16a7.36,7.36,0,0,0,.51-1.24,5.18,5.18,0,0,0,.14-.66,4.63,4.63,0,0,0,.51-1.88.36.36,0,0,0,.07-.1,3.05,3.05,0,0,0,1-1.82.59.59,0,0,0,0-.13,3,3,0,0,0,.39-1,3.18,3.18,0,0,0,.4-.88,2.67,2.67,0,0,0,.12-.88,3.77,3.77,0,0,0,.29-.94,3.54,3.54,0,0,0,.55-1.23,7.18,7.18,0,0,0,.87-1.39,5.78,5.78,0,0,0,.59-2.14,3.66,3.66,0,0,0,.24-1.31Z"/><path class="fabdeba6-f0c0-4f71-b28a-e15bfaefa798" d="M166.05,5.72l0-.14c0-.35-.07-.69-.13-1a2.71,2.71,0,0,0-2.24-2.2A3.43,3.43,0,0,0,162.42,2a2.88,2.88,0,0,0-.87-.29,2.74,2.74,0,0,0-1.23-.22,3,3,0,0,0-1.41.45.9.9,0,0,1-.48.16h0a3.44,3.44,0,0,1-1.13-.15,2.78,2.78,0,0,0-.95-.11,3,3,0,0,0-1.41.45h0a4.76,4.76,0,0,0-2,.67,9.13,9.13,0,0,0-1,.19,6.2,6.2,0,0,1-.71.12,4.16,4.16,0,0,0-1.46-.17,6.12,6.12,0,0,0-1.62.3,3.63,3.63,0,0,1-.44,0h-.37l-1.22.08a3,3,0,0,1-.6,0,2.56,2.56,0,0,0-.62,0,3,3,0,0,0-1.26.38l-.21.12c-.68,0-1.38.06-2.1.07l-.4,0a7.91,7.91,0,0,0-2.35.51,3.47,3.47,0,0,0-.72,0,5.26,5.26,0,0,0-.78.12,2.53,2.53,0,0,1-.55.09.27.27,0,0,1-.17,0,4.92,4.92,0,0,0-1.92-.34,6.2,6.2,0,0,0-.94-.44,7.36,7.36,0,0,0-1.25-.38,4.83,4.83,0,0,0-1.28-.07l-.67.09a5.34,5.34,0,0,0-1.76.66,5.91,5.91,0,0,0-1.38,1,4.14,4.14,0,0,0-.94.75,3.08,3.08,0,0,0-.78,1.57,22.46,22.46,0,0,0-.31,2.79,10.35,10.35,0,0,0,.08,2,4.55,4.55,0,0,0-.33,1.24,2.81,2.81,0,0,0,.27,1.6,10,10,0,0,0-.5,3,4.66,4.66,0,0,0,.27,1.6,1.27,1.27,0,0,1,0,.28,7.69,7.69,0,0,0-.17,1.63c0,.13,0,.25,0,.38s0,.24,0,.36a6.84,6.84,0,0,0,.21,1.6c.08.35.17.72.25,1.08a2.87,2.87,0,0,0,0,2.63,3.09,3.09,0,0,1,0,.43c0,.4,0,.8,0,1.2a4.55,4.55,0,0,0,.1.92,5.29,5.29,0,0,0-.06,2l0,.24a5.07,5.07,0,0,0-.54,2.1,2.87,2.87,0,0,0-.07,2.81.76.76,0,0,1,0,.16,3.18,3.18,0,0,0-.06,1.73l0,.13a7.87,7.87,0,0,0-.27,2.06,6.11,6.11,0,0,0,.4,2.13c0,.29,0,.63,0,1a.13.13,0,0,0,0,.06,2.93,2.93,0,0,0-.21,2.24,4,4,0,0,0,.18,1,4.87,4.87,0,0,0-.18,1.31,9.29,9.29,0,0,0,.17,1.68,2.91,2.91,0,0,0-.2,2.05,2.29,2.29,0,0,0,.39.8,3.27,3.27,0,0,0,.28.67,3.88,3.88,0,0,0,.24.78,2,2,0,0,0,.1.21,4.25,4.25,0,0,0,1,1.29,3.76,3.76,0,0,0,.4,1.24,2.48,2.48,0,0,0,.4.56,2.55,2.55,0,0,0,.63.86,2.61,2.61,0,0,0,1.9.65,4,4,0,0,0,2.1.39,7.24,7.24,0,0,0,3.11-.94.87.87,0,0,1,.26,0,2.82,2.82,0,0,1,.5,0H136a4.89,4.89,0,0,0,1.55-.38,4.7,4.7,0,0,0,.75,0,3.48,3.48,0,0,0,.84-.17,2.77,2.77,0,0,0,.5,0,3.57,3.57,0,0,0,1.95-.75,3.57,3.57,0,0,0,.46,0l.53-.06.25,0a2.37,2.37,0,0,0,.46,0,2.93,2.93,0,0,0,1.08-.28h.34a3.07,3.07,0,0,0,1.17-.33,6.42,6.42,0,0,0,.76,0,5.42,5.42,0,0,0,.58-.06,3.68,3.68,0,0,0,1.3.14c.18,0,.38,0,.59-.07l.49.15a2.7,2.7,0,0,0,1,.14,2.86,2.86,0,0,0,1.07-.27H152a8.22,8.22,0,0,0,1.26-.19h0a7.24,7.24,0,0,0,1.22,0,11.17,11.17,0,0,0,3-.59,13,13,0,0,0,1.76-.76,6.41,6.41,0,0,0,1-.18,11.52,11.52,0,0,0,1.53-.53,6.92,6.92,0,0,0,1.65-1,3.69,3.69,0,0,0,1.49-2.75,3.05,3.05,0,0,0-.27-1.68,3.82,3.82,0,0,0,0-.61,2.71,2.71,0,0,0-.6-1.36,5.1,5.1,0,0,0-.78-.76,2.63,2.63,0,0,0-1.36-1.6,5.47,5.47,0,0,0-2.73-.57l-.25,0a11.77,11.77,0,0,0-1.84.32c-.22.05-.43.1-.63.13a2.76,2.76,0,0,0-1.24-.22,3.35,3.35,0,0,0-.69.13,5.53,5.53,0,0,0-1.87,1,3,3,0,0,1-.65.11h-1a6.2,6.2,0,0,0-.95.13,2.67,2.67,0,0,0-1.23-.21,3,3,0,0,0-.51.08,4.16,4.16,0,0,1-.72.1l-.45,0a6.19,6.19,0,0,0-1.13.18l-.42-.1a3.13,3.13,0,0,0-.69,0,2.9,2.9,0,0,0-1.45.5,2.08,2.08,0,0,1-.66.25,13.74,13.74,0,0,1-1.58.31c-.52.07-1,.12-1.37.15a5.5,5.5,0,0,0-.66.07,3.74,3.74,0,0,0-1.06-.06l-.31,0a9.23,9.23,0,0,0-1.29.27,2.62,2.62,0,0,0-.63-1.5,6.14,6.14,0,0,0-.26-1.57,3.52,3.52,0,0,0,.43-1.7,3.87,3.87,0,0,0-.23-1.37,5.84,5.84,0,0,0,.23-1.66,3.39,3.39,0,0,0,0-.45,3.5,3.5,0,0,0,.29-1.39,3.45,3.45,0,0,0-.05-.57l.09-.19a2.84,2.84,0,0,0,0-2.48,1.73,1.73,0,0,1-.13-.92l.16-.07a4,4,0,0,1,1.34-.33h.21l.44,0a8.77,8.77,0,0,0,2.38-.49,4.51,4.51,0,0,0,.52,0,4.9,4.9,0,0,0,1-.16,3,3,0,0,0,.84-.37h.14l.3,0a7.46,7.46,0,0,0,1.44-.23,5.76,5.76,0,0,0,1,0,5.29,5.29,0,0,0,1.84-.45,4.69,4.69,0,0,0,1.2.06,3.81,3.81,0,0,0,.59-.08,4.35,4.35,0,0,0,1.14.08,4.46,4.46,0,0,0,1.83-.52,1,1,0,0,1,.36-.12,1.29,1.29,0,0,1,.25,0,3.8,3.8,0,0,0,.95.06,3.59,3.59,0,0,0,.46-.05,2.73,2.73,0,0,0,1,.14,3.76,3.76,0,0,0,1.2-.28h.22a4.72,4.72,0,0,0,.74-.11,3.42,3.42,0,0,0,.45,0h.16a2.88,2.88,0,0,0,1-.25h.17a5.5,5.5,0,0,0,1.33-.26l.11,0c.23-.09.45-.19.67-.3h.06A3,3,0,0,0,164.27,29a5.13,5.13,0,0,0,1.16-1.56,2.84,2.84,0,0,0,.15-2.17,2.66,2.66,0,0,0-.65-2v0a2.69,2.69,0,0,0-1.16-2.14,2.7,2.7,0,0,0-2.29-1.05l-.3,0-.32,0a4.52,4.52,0,0,0-2.29-.52,3.09,3.09,0,0,0-.52.07,2.73,2.73,0,0,0-.76-.07,4.87,4.87,0,0,0-1.13.2,8.76,8.76,0,0,0-2.54.55,2.54,2.54,0,0,1-.85.18,10,10,0,0,1-1.44,0,4.84,4.84,0,0,0-.66,0,5.58,5.58,0,0,0-1.34.24,3,3,0,0,0-.52,0,4.54,4.54,0,0,0-1.26.25l-.26.1h-.66l-.48.06a2.71,2.71,0,0,0-.75-.05h-.14a3.11,3.11,0,0,0-1.93,1h-.42a3.86,3.86,0,0,0-1.64.48c-.21,0-.55,0-1.19,0h-.44a4.6,4.6,0,0,0-1.61.4,6.7,6.7,0,0,1-1.4-.08l-.15,0c0-.12,0-.24-.05-.36a3.32,3.32,0,0,0,.2-1.13,4.15,4.15,0,0,0-.08-.79,4.67,4.67,0,0,0,.08-.83,2.92,2.92,0,0,0-.16-1,2.16,2.16,0,0,0,0-.35,22.58,22.58,0,0,0-.23-3.15s0-.06,0-.09q.31,0,.66,0h.5a5.47,5.47,0,0,0,1.35-.26,8.17,8.17,0,0,0,1.4,0,8,8,0,0,0,1-.12l.24,0a1.36,1.36,0,0,1,.54.07,2.88,2.88,0,0,0,2.26-.22,4.09,4.09,0,0,1,1.56-.4h.14a4,4,0,0,1,1.53.15,2.81,2.81,0,0,0,1,.13,2.86,2.86,0,0,0,1.06-.27,4.54,4.54,0,0,0,.62-.34,7.84,7.84,0,0,0,1.29,0,6.56,6.56,0,0,0,2-.47,3.9,3.9,0,0,0,1.49.2l.2,0a2.59,2.59,0,0,0,.88.09,3,3,0,0,0,1-.25h.45a6,6,0,0,0,1.41-.25,4.07,4.07,0,0,0,1.08-.5l.46-.11h.22a3,3,0,0,0,1.41-.45l.28-.18a3,3,0,0,0,1.55-.58,3.12,3.12,0,0,0,.77-.85A3.57,3.57,0,0,0,165.93,8V7.84A2.83,2.83,0,0,0,166.05,5.72Z"/><path class="fabdeba6-f0c0-4f71-b28a-e15bfaefa798" d="M219.47,45.81a4.32,4.32,0,0,0-.78-1.65l-.24-.33a2.81,2.81,0,0,0-2.7-1.91,4.38,4.38,0,0,1-2.12,0l-.46,0h-.24a3.34,3.34,0,0,0-.7-.08,2.88,2.88,0,0,0-2.13,1c-.26.07-.53.16-.82.26h-.18a3.12,3.12,0,0,0,.14-.8,2.8,2.8,0,0,0-.73-1.95,2.68,2.68,0,0,0-.16-1.06,3,3,0,0,0-.06-1.12c0-.25,0-.5,0-.73a6.75,6.75,0,0,0-.12-1.27,2.68,2.68,0,0,0-.07-.27,3.23,3.23,0,0,0,0-.44,2.81,2.81,0,0,0-.14-1.67,3.94,3.94,0,0,0-.33-.65l-.06-.31a3.92,3.92,0,0,0,0-1.28c0-.07,0-.14,0-.21a2.83,2.83,0,0,0,.33-1.15,2.8,2.8,0,0,0-.19-1.22v-.24l0-.09a2.88,2.88,0,0,0-.11-2.72l0-.81a1.24,1.24,0,0,1,.05-.43,2.8,2.8,0,0,0-.24-2.2v-.05a2.93,2.93,0,0,0,0-2.18,10.16,10.16,0,0,0,.1-1.51,6.84,6.84,0,0,0-.17-1.47.61.61,0,0,1,0-.16,5.67,5.67,0,0,0,.34-1.87,4.18,4.18,0,0,0-.19-1.24,4.62,4.62,0,0,0,.05-.65,4,4,0,0,0-.06-.69s0-.05,0-.08a2.94,2.94,0,0,0,.05-.51v-.15a6.22,6.22,0,0,1,1.29.22,3.19,3.19,0,0,0,.8.1,2.85,2.85,0,0,0,1.59-.52,3.09,3.09,0,0,0,2-1.06,2.55,2.55,0,0,1,.51-.2A2.88,2.88,0,0,0,215.73,7a1.11,1.11,0,0,1,0-.46,6.06,6.06,0,0,0-.19-3.11A2.8,2.8,0,0,0,213,1.52,4.23,4.23,0,0,0,211.54,1a3.4,3.4,0,0,0-1.89-.52h0A5.55,5.55,0,0,0,207.43,0a2.93,2.93,0,0,0-2.05.91l-.85.1c-.22-.1-.43-.2-.65-.28a7.14,7.14,0,0,0-2-.46,2.8,2.8,0,0,0-.29,0,2.94,2.94,0,0,0-1.78.66c-.23.19-.43.37-.6.53H199a2.58,2.58,0,0,1-.4,0,2.64,2.64,0,0,0-.56,0,2.86,2.86,0,0,0-1.59.53h-.31a2.9,2.9,0,0,0-1.72.64,4.63,4.63,0,0,0-2.14.76,3,3,0,0,0-2.33,1.4,8.19,8.19,0,0,0-.79,1.68c-.1.31-.21.63-.34,1A2.79,2.79,0,0,0,189.2,10a5.43,5.43,0,0,0,.59.67h0A2.74,2.74,0,0,0,191.45,13a3.62,3.62,0,0,0,2.39.78,4.77,4.77,0,0,0,2-.5,7.58,7.58,0,0,0,.21,1.19,1.65,1.65,0,0,1,.06.32,3.3,3.3,0,0,0-.33,1.95,3.11,3.11,0,0,0,.06.62,3.76,3.76,0,0,0-.1.48,3.17,3.17,0,0,0,.1,1.19,2.7,2.7,0,0,0,0,1.06,2.8,2.8,0,0,0,.46,2.2s0,0,0,.06a2,2,0,0,1,.07.49,7.93,7.93,0,0,1-.06,1,.61.61,0,0,1,0,.15,2.85,2.85,0,0,0-.08,2.2,5.72,5.72,0,0,0-.18,1.43,9,9,0,0,0,.25,2.14,2.82,2.82,0,0,0-.16,2.53,4.91,4.91,0,0,1,.28,1.91,14.27,14.27,0,0,0,.25,3.06,4.06,4.06,0,0,0-.15,1.07,2.73,2.73,0,0,0,.34,1.32v.29a8,8,0,0,0,.1,1.33l0,.16-.13.36a2.78,2.78,0,0,0-.17,1.5,3.36,3.36,0,0,0-.3,1.32,6.43,6.43,0,0,0-1.45.27A3,3,0,0,0,193.43,46a4.93,4.93,0,0,0-1.37,1.17,3,3,0,0,0-.62,1.4,4.79,4.79,0,0,0,.25,2.62,2.78,2.78,0,0,0,.34,1.67,5.09,5.09,0,0,0,1.86,1.91,7.61,7.61,0,0,0,1.91.8,3.21,3.21,0,0,0,.81.1A3,3,0,0,0,198,55.2h.35A7.94,7.94,0,0,0,199.9,55a10,10,0,0,1,1.45-.25h.14A13.65,13.65,0,0,1,203,54.6h.72a11.58,11.58,0,0,0,1.48-.15,2.88,2.88,0,0,0,1.59.45,3.74,3.74,0,0,0,.66-.09,2.6,2.6,0,0,1,1.11-.29,2.69,2.69,0,0,0,.57,0,3.7,3.7,0,0,0,.57-.07,3.08,3.08,0,0,0,.61.06,2.87,2.87,0,0,0,1.47-.44,4,4,0,0,0,1-.24l.35-.15a4.78,4.78,0,0,0,.57-.12H214a2.84,2.84,0,0,0,1.51-.46,4.84,4.84,0,0,0,2-.95,2.73,2.73,0,0,0,.25-.23,5,5,0,0,0,.61-.8l.48-.72c.23-.34.43-.68.6-1l.32-.6a2.81,2.81,0,0,0-.3-3S219.47,45.83,219.47,45.81Z"/><path class="fabdeba6-f0c0-4f71-b28a-e15bfaefa798" d="M264,8.78a3.78,3.78,0,0,0-.17-1.11s0-.08,0-.11a4.8,4.8,0,0,0-.18-2.17,1.22,1.22,0,0,0-.07-.17,3.83,3.83,0,0,0-.48-.89,2.89,2.89,0,0,0-1-1.58A7.43,7.43,0,0,0,260.9,2a.83.83,0,0,1-.16-.12,3,3,0,0,0-1.24-.59,5.56,5.56,0,0,0-.7-.08,3.68,3.68,0,0,0-.82.09,4,4,0,0,0-.85-.11,3.35,3.35,0,0,0-1.42.29,5.08,5.08,0,0,0-1.5,1q-.18.17-.36.36a2.66,2.66,0,0,0-1.16.74,2.75,2.75,0,0,0-.76,2.12c0,.66.11,1.33.18,2a8.71,8.71,0,0,1,0,.87,2.83,2.83,0,0,0-.39,1,4.32,4.32,0,0,0-.45,2,7,7,0,0,0,.09,1.12,2.86,2.86,0,0,0,.42,2.33,5.21,5.21,0,0,1-.08.55,7.34,7.34,0,0,0-.06,2.6,4.55,4.55,0,0,0,.25,1.07A2.55,2.55,0,0,0,252,20a3.78,3.78,0,0,0,0,.75,3.28,3.28,0,0,0-.3,1.39,3.82,3.82,0,0,0,.17,1.12,4.22,4.22,0,0,0-.07,1.36,5.21,5.21,0,0,0-.57,2.37,5,5,0,0,0,.4,2,8,8,0,0,1-.32,2.2A13.58,13.58,0,0,0,250.7,35a4.2,4.2,0,0,0,.11.92,2.69,2.69,0,0,0-.14.54l0,0a6.64,6.64,0,0,0-.51-.55,2.7,2.7,0,0,0-.55-1.08,2.9,2.9,0,0,0-.6-1.35l-.22-.33a3.89,3.89,0,0,0-1-1.84,2.86,2.86,0,0,0-.83-1.71h0a2.81,2.81,0,0,0-.59-.86,2.76,2.76,0,0,1-.27-.31,3.49,3.49,0,0,1-.28-.66,2.83,2.83,0,0,0-.88-1.25,1.07,1.07,0,0,1-.33-.4,6.3,6.3,0,0,0-.46-.85,3.48,3.48,0,0,0-.26-1.12,3,3,0,0,0-.71-1,2.83,2.83,0,0,0-.78-1.51v-.22a2.84,2.84,0,0,0-1-2L241,18.9l-.33-.51v-.07a2.85,2.85,0,0,0-.75-1.93,3.88,3.88,0,0,0-.66-1.21,3.26,3.26,0,0,0-1-1.44,4.62,4.62,0,0,0-.61-.94,2.86,2.86,0,0,0-.8-1.86l-.05,0c-.08-.2-.15-.38-.23-.55a2.83,2.83,0,0,0-1-2,5.92,5.92,0,0,0-.23-.62,2.86,2.86,0,0,0-.83-1.09,4.66,4.66,0,0,0-.95-.93,3,3,0,0,0-.54-.32,11.27,11.27,0,0,0-2-.67h0a2.83,2.83,0,0,0-1-1.59A5,5,0,0,0,226.94,2c-.44,0-.87,0-1.26,0h-.26a3,3,0,0,0-1.67.55,11.24,11.24,0,0,0-2.9,2.76A5.14,5.14,0,0,0,220,8.53a8.49,8.49,0,0,0,.57,2.33,4.6,4.6,0,0,1,.16,1.41h0a2.85,2.85,0,0,0-.19,2.25,2.74,2.74,0,0,0,.27,1.48,13,13,0,0,0-.08,1.39,3.74,3.74,0,0,0,.08.82,4.17,4.17,0,0,0-.08.8,3.59,3.59,0,0,0,.14,1c0,.18,0,.33,0,.42v.74a3,3,0,0,0,0,.43,2.34,2.34,0,0,0,0,.38,4.27,4.27,0,0,0,.34,1.61c0,.19,0,.39-.05.59a1,1,0,0,1-.06.26,3,3,0,0,0,0,2.28,2.47,2.47,0,0,1,.08.75,2.31,2.31,0,0,1-.08.75,2.84,2.84,0,0,0,.13,2.6c-.07.57-.14,1.12-.22,1.65a2.87,2.87,0,0,0,.46,2c0,.14.05.28.08.43a1.57,1.57,0,0,0,0,.23,7,7,0,0,0-.06.91,3.57,3.57,0,0,0,.16,1c0,.15,0,.3,0,.45a3.19,3.19,0,0,0,.08.75,5.34,5.34,0,0,0-.28,2.68,4.51,4.51,0,0,0,.2,1.22c0,.09,0,.21,0,.36s0,.57-.07.86a2.71,2.71,0,0,1-.05.37,2.74,2.74,0,0,0-.26,1.17,2.83,2.83,0,0,0,.26,1.19v0a6.89,6.89,0,0,0-.1,1.51,10.84,10.84,0,0,1,0,1.15c0,.16-.07.33-.11.49a6.26,6.26,0,0,0-.18,1.49,4.14,4.14,0,0,0,2,3.54,5.2,5.2,0,0,0,2.9.77,6.7,6.7,0,0,0,.87-.06,2.77,2.77,0,0,0,1-.32,3.55,3.55,0,0,0,1.54.34l.47,0a2.93,2.93,0,0,0,1.83-1,7.38,7.38,0,0,0,1.15-1.72,3.94,3.94,0,0,0,.37-1.9,3.56,3.56,0,0,0,.15-.68,9.41,9.41,0,0,0,.05-.95h0a3.13,3.13,0,0,0,.21-2.16,2.82,2.82,0,0,0-.28-1.95,11.08,11.08,0,0,0,.14-1.68,3.16,3.16,0,0,0-.52-1.75q0-.44-.09-.84a4.15,4.15,0,0,0,.2-1.26,5.35,5.35,0,0,0-.2-1.42,4.92,4.92,0,0,1,.16-1.18,11.29,11.29,0,0,0,.31-2.65,2.76,2.76,0,0,0-.18-1,3.21,3.21,0,0,0,0-1.31,1.67,1.67,0,0,0-.08-.32v-.08a3.36,3.36,0,0,0-.36-1.52,2,2,0,0,0,0-.24,2.8,2.8,0,0,0-.4-2.43c0-.13,0-.27,0-.4a0,0,0,0,1,0,0,4.7,4.7,0,0,0,.46.7,2.91,2.91,0,0,0,.37.89,3.4,3.4,0,0,0,.23.94,5.93,5.93,0,0,0,.92,1.78s0,.06,0,.11a2.58,2.58,0,0,0,.19.82,3.68,3.68,0,0,0,.37,1.32,2.41,2.41,0,0,0,.33.5,2.86,2.86,0,0,0,.64,1.07l1,1.09.53.61a3.75,3.75,0,0,0,.44,1,6.15,6.15,0,0,0,.5.71,2.85,2.85,0,0,0,.8,1.68,4.24,4.24,0,0,0,.52.43,4.38,4.38,0,0,0,.41.91,2.83,2.83,0,0,0,1.32,1.86,6.45,6.45,0,0,0,.49.89,2.85,2.85,0,0,0,1.63,2.1,3.19,3.19,0,0,1,.28.61,2.88,2.88,0,0,0,.76,1.44,3.17,3.17,0,0,0,.39.34,2.07,2.07,0,0,0,.15.25,3.89,3.89,0,0,0,.67.77,2.9,2.9,0,0,0,.38.66,3.19,3.19,0,0,0,.18,1,2.84,2.84,0,0,0,2.07,1.87.62.62,0,0,1,.15.06,3.87,3.87,0,0,0,.43.27,3.81,3.81,0,0,0,.53.67,4.68,4.68,0,0,0,1.47,1,6.22,6.22,0,0,0,1.36.47l.86.2a2.57,2.57,0,0,0,.55.06,2.79,2.79,0,0,0,1.07-.2,4.09,4.09,0,0,0,1.37-.86,2.68,2.68,0,0,0,.92-.78,3,3,0,0,0,.82-.55,2.52,2.52,0,0,1,.33-.29,2.83,2.83,0,0,0,1.72-1.36,3.13,3.13,0,0,0,1.28-2.6q0-.69,0-1.59a7.25,7.25,0,0,0-.4-2.75s-.09-.23-.12-.3a5,5,0,0,0,.59-1.83,3.19,3.19,0,0,0,.51-1.74V39.55a3.81,3.81,0,0,1,.05-.59c0-.09.07-.19.12-.31a4.21,4.21,0,0,0,.44-1.71v0a2.83,2.83,0,0,0-.1-2c.05-.31.09-.62.14-.92a3.48,3.48,0,0,0,.43-1.66v-.2a2.83,2.83,0,0,0,.14-1c0-.12,0-.24,0-.36a3.86,3.86,0,0,0,.16-1.2,3.16,3.16,0,0,0,.43-2.4,2.64,2.64,0,0,0-.14-.48,7.5,7.5,0,0,0,.06-.93,4.54,4.54,0,0,0-.32-1.7h0a6.66,6.66,0,0,0,.31-2.06c0-.5.08-1,.1-1.57q0-.42,0-.84A3.72,3.72,0,0,0,264,18a2.86,2.86,0,0,0-.3-1.28,2.82,2.82,0,0,0-.12-1.83v0a3.9,3.9,0,0,0,0-.59,2.92,2.92,0,0,0-.14-2c0-.13,0-.27,0-.41a1.63,1.63,0,0,1,.1-.46A6.88,6.88,0,0,0,264,8.78Z"/><path class="fabdeba6-f0c0-4f71-b28a-e15bfaefa798" d="M334.93,41.55a3.15,3.15,0,0,0-.31-2.11,5.74,5.74,0,0,0-.46-1.19,3.1,3.1,0,0,0-.52-1.48,2,2,0,0,1-.05-.26,3.06,3.06,0,0,0-.93-1.69l-.78-.75v-.13a3.06,3.06,0,0,0-2.65-3,3.17,3.17,0,0,0-1.55-1.16h0a3,3,0,0,0-2.12-1.09h-.06a3.43,3.43,0,0,0-.5-.14c-.33-.24-.66-.45-1-.65a5.89,5.89,0,0,0-.94-.47,2.9,2.9,0,0,0,.14-.48,5.17,5.17,0,0,0,.46-.74l.09-.18a3.1,3.1,0,0,0,.65-1.11,2.81,2.81,0,0,0,.74-.94,2.88,2.88,0,0,0,.66-2.07v0a6.69,6.69,0,0,0,.82-2.58,2.92,2.92,0,0,0,0-.66,3.17,3.17,0,0,0,0-2.21,2.75,2.75,0,0,0,0-.81,3,3,0,0,0-.85-2.53,3,3,0,0,0-.9-2.37,3.06,3.06,0,0,0-.93-.63,3.38,3.38,0,0,0-.36-.27,3.74,3.74,0,0,0-.41-.5,3.53,3.53,0,0,0-1.4-.89l-.12-.15a6.47,6.47,0,0,0-1-1.08,3.58,3.58,0,0,0-.63-.82A3,3,0,0,0,317.78,5a4.14,4.14,0,0,0-1.47-.56l-.37-.21a5.17,5.17,0,0,0-1.17-.53,5.12,5.12,0,0,0-.52-.27A3.84,3.84,0,0,0,312.69,3h-.13c-.36-.12-.72-.25-1.06-.39A7.77,7.77,0,0,0,309,2.08a6.28,6.28,0,0,0-1.22.06h-.27A2.32,2.32,0,0,1,306.7,2a8.48,8.48,0,0,0-2.59-.53,5.67,5.67,0,0,0-1.74.18h-.15a1.75,1.75,0,0,1-.55-.12A6.17,6.17,0,0,0,300,1.15a4.78,4.78,0,0,0-2-.56,4.29,4.29,0,0,0-1.14.12h0a3.14,3.14,0,0,0-1.26-.33,3.46,3.46,0,0,0-1.78.46,5.76,5.76,0,0,0-3.14,1.72A10.68,10.68,0,0,0,289,5.16a2.81,2.81,0,0,0-.23,1.65,3.85,3.85,0,0,0,.59,1.53,3.44,3.44,0,0,0-.1,1.28,3.3,3.3,0,0,0,0,1.29,4.27,4.27,0,0,0-.07.71c0,.57,0,1.2,0,1.89s.06,1.36.11,2a3.1,3.1,0,0,0,.2.89,9.94,9.94,0,0,0-.08,1.2,3.58,3.58,0,0,0,.1.8,3.69,3.69,0,0,0-.23,1.29,3.89,3.89,0,0,0,.19,1.19,4.4,4.4,0,0,0-.19,1.3,6,6,0,0,0,.08,1,.36.36,0,0,0,0,.11,2.51,2.51,0,0,0-.06.55,3.47,3.47,0,0,0,.3,1.44,4.54,4.54,0,0,0,.3,1.22l.1.26a2.67,2.67,0,0,1,0,.48v1.05a4.42,4.42,0,0,0-.13,1.1,3.31,3.31,0,0,0,.09.77,2.84,2.84,0,0,0,.16,1.38l.24.65a4.28,4.28,0,0,0,.29,2.28.3.3,0,0,1,0,.08,3.36,3.36,0,0,0-.06,1,3.06,3.06,0,0,0-.36,1.46,3,3,0,0,0,.25,1.16l.6,1.33,0,.07a5.65,5.65,0,0,0-.05,1.49c0,.41.05.77.05,1.1a1.94,1.94,0,0,1-.06.46,4.86,4.86,0,0,0-.12,1.19,4.3,4.3,0,0,0-.13,2.27,2.84,2.84,0,0,0-.05,1.23,3.64,3.64,0,0,0-.13.72c0,.26-.06.57-.1,1a2.91,2.91,0,0,0,.55,2,3.86,3.86,0,0,0,.89.87c0,.08,0,.17-.05.28a2.93,2.93,0,0,0,.72,2.53,3.78,3.78,0,0,0,.43.38,3.54,3.54,0,0,0,.35.42,4,4,0,0,0,1,.77,3.44,3.44,0,0,0,2.54,1.24,8,8,0,0,0,1.84-.14,2.29,2.29,0,0,1,.53,0,.79.79,0,0,1,.24,0,7,7,0,0,0,2,.38,5,5,0,0,0,1.94-.3h0a6.61,6.61,0,0,0,1.56.26,4.43,4.43,0,0,0,1-.08h0a4.58,4.58,0,0,0,.55.07,5.38,5.38,0,0,0,1-.06,5.32,5.32,0,0,0,.79-.18,3.58,3.58,0,0,0,1.06.22H310a4.36,4.36,0,0,0,.85.15,5.72,5.72,0,0,0,.58,0,3,3,0,0,0,.67.11,2.71,2.71,0,0,0,1.5-.35h.14c.2,0,.4,0,.6-.07l.12,0a3.42,3.42,0,0,0,.66.1,3.05,3.05,0,0,0,1.71-.39h.35a4.41,4.41,0,0,0,1.15.21,5,5,0,0,0,1.33-.1,9.1,9.1,0,0,1,1.16-.16,2.73,2.73,0,0,0,1.74-.72l.08,0,.13,0a3.09,3.09,0,0,0,1.05-.12,2.29,2.29,0,0,0,.66-.29,4.81,4.81,0,0,0,1.38-.39,3.92,3.92,0,0,0,1-.28l.27,0a2.67,2.67,0,0,0,1.23-.53,3,3,0,0,0,1.23-.58,2.61,2.61,0,0,0,1.47-1.86,2.57,2.57,0,0,0,1-1.22l.37-.34A2.72,2.72,0,0,0,333,50a3.41,3.41,0,0,0,.39-1.09,5.11,5.11,0,0,0,.77-1.9s0,0,.06-.09a2.66,2.66,0,0,0,.83-1.87,5.22,5.22,0,0,0,.2-1.41,5.44,5.44,0,0,0-.36-2C334.9,41.65,334.92,41.6,334.93,41.55Zm-10.86,1.14s0,0,0,0a2.55,2.55,0,0,0-.31.59,3.15,3.15,0,0,0-.63.82,4.61,4.61,0,0,0-.5.4l-.39.4-1.06.46a5.87,5.87,0,0,1-.63.24h-.13a2.72,2.72,0,0,0-1.2.21h-.08a2.74,2.74,0,0,0-1.59.4,2.62,2.62,0,0,0-.34.24,3,3,0,0,0-.58.17l-.57-.06a6.53,6.53,0,0,0-1.47.1l-.27.06-.38-.05a4.67,4.67,0,0,0-1.85.31,3,3,0,0,0-1.46-.48,2.82,2.82,0,0,0-1.36.28c-.32.16-.52.25-.65.3a13,13,0,0,0-1.37-.14h-.38a2.2,2.2,0,0,0-.36,0,3.39,3.39,0,0,0-1.34.2l-.4,0s0,0,0,0l-.2-.09a3.74,3.74,0,0,0-1.4-.34H303c-.11-.06-.23-.1-.34-.15a2.82,2.82,0,0,0,.07-1.63l-.09-.34a4.07,4.07,0,0,0,.34-2,3.15,3.15,0,0,0-.3-1.61,4.33,4.33,0,0,0-.1-1.26,4.58,4.58,0,0,0,0-.53,6.36,6.36,0,0,0-.22-1.58,5.08,5.08,0,0,0-.39-1.52c0-.21,0-.41,0-.6l.28-.13.31-.07a1.92,1.92,0,0,0,.32-.09,4.69,4.69,0,0,0,.72-.33l.61.06a6.05,6.05,0,0,0,1.35-.09,4.16,4.16,0,0,0,.86.13,3.25,3.25,0,0,0,.54,0,12.56,12.56,0,0,0,1.37-.2l.8-.18a1.89,1.89,0,0,0,.47.06,2.65,2.65,0,0,0,1.08-.16h.06a1.58,1.58,0,0,0,.24.15,3,3,0,0,0,1.67.88,8.79,8.79,0,0,0,1.15.12l.57,0h.05l.15.11a3,3,0,0,0,.68.37,4.84,4.84,0,0,0,.65.19,4.87,4.87,0,0,0,1.35.89,6.2,6.2,0,0,0,1.9.49,3.75,3.75,0,0,0,1,.47,3.23,3.23,0,0,0,.63.47,5.11,5.11,0,0,0,.8.35,4.91,4.91,0,0,0,.49.6c.19.2.38.39.58.57a3.22,3.22,0,0,0,.57.86,5.47,5.47,0,0,0,.57.51l.2.5a4.14,4.14,0,0,1,.15.41Q324.08,42.54,324.07,42.69ZM300.28,12.32l.08,0a3,3,0,0,0,1.18.31,2.7,2.7,0,0,0,1.1-.17h0a3.51,3.51,0,0,0,1.19.28,4.1,4.1,0,0,0,.61,0,4,4,0,0,0,1.15.23,3.62,3.62,0,0,0,.57,0,4.84,4.84,0,0,0,2.07.55,5.07,5.07,0,0,0,.57.29l.26.11a5.78,5.78,0,0,0,1.41.28,3.23,3.23,0,0,0,1.88.73l.27,0a5.41,5.41,0,0,0,1.28.88c.2.21.46.47.82.8a1.57,1.57,0,0,0,.19.18v.07a4.41,4.41,0,0,0,0,.52,2.64,2.64,0,0,0-1.31,2.32v.54c-.05.09-.08.19-.12.28a5,5,0,0,0-.55.73l-.77.46-.8.5-.2.14-.44.11a1.53,1.53,0,0,0-.3,0,2.74,2.74,0,0,0-1.26.23,3.36,3.36,0,0,1-1,.3A7.59,7.59,0,0,1,307,23a3.15,3.15,0,0,0-1.86.46,7,7,0,0,0-.79.08l-1.4.22-.31,0a2.9,2.9,0,0,0-.77-.14,2.73,2.73,0,0,0-.57,0l-.24,0a3.65,3.65,0,0,0-.15-.5,2.81,2.81,0,0,0-.27-2.39,2.09,2.09,0,0,1-.18-.63c-.05-.25-.08-.46-.1-.63a3.11,3.11,0,0,0,.21-.91c.05-.4.09-.91.11-1.52a4.34,4.34,0,0,0-.36-2,6.07,6.07,0,0,0-.08-.94A2.87,2.87,0,0,0,300.28,12.32Z"/><path class="fabdeba6-f0c0-4f71-b28a-e15bfaefa798" d="M374.72,52.92a7.12,7.12,0,0,0-1.7-2.18,3.3,3.3,0,0,0-1.2-.66l-.36-.11a3.2,3.2,0,0,0-1.73-1.09l-.17-.14a3.12,3.12,0,0,0-1.66-.69,3,3,0,0,0-.9.07,3.25,3.25,0,0,0-1.72,1l-.47,0-.81.05a3.94,3.94,0,0,0-1.56-.45,6.29,6.29,0,0,0-1.92.12,1.08,1.08,0,0,1-.3,0,1.67,1.67,0,0,1-.42-.07,5,5,0,0,0-1-.19,4.9,4.9,0,0,0-1.15,0,8.72,8.72,0,0,0-1.48-.42l-.32,0a2.63,2.63,0,0,0-1.25.19,2.74,2.74,0,0,0-.5-.08,5.23,5.23,0,0,0-.56,0l-.57-.12c-.25,0-.5-.12-.74-.19a2.85,2.85,0,0,0-.69-.15,3.06,3.06,0,0,0-.91.08l-.28.08s0-.06,0-.09a4.71,4.71,0,0,0,.2-1.36,3.84,3.84,0,0,0-.2-1.21,4.05,4.05,0,0,0,0-.92,5.25,5.25,0,0,0-.48-1.75l-.15-.3a6.67,6.67,0,0,0-.42-2.14.23.23,0,0,1,0-.11,4.7,4.7,0,0,0,.33-1.73c0-.34,0-.66,0-.94a2.9,2.9,0,0,0-.2-2.37c0-.27,0-.54,0-.82a3.34,3.34,0,0,0-.14-.94,4.49,4.49,0,0,0,.34-1.67c0-.12,0-.23,0-.35a1.77,1.77,0,0,0,0-.32,4,4,0,0,0-.18-1.2,2.76,2.76,0,0,1,.08-.27,4.6,4.6,0,0,0,.26-2.12A2.75,2.75,0,0,0,350,25a.43.43,0,0,1,0-.15,10.23,10.23,0,0,0,.27-2.3,8,8,0,0,0-.1-1.28,2.07,2.07,0,0,1,0-.35,1.56,1.56,0,0,1,.07-.46,7.34,7.34,0,0,0,.27-2,4.51,4.51,0,0,0-.2-1.33,2.23,2.23,0,0,1,.31-.92,2.73,2.73,0,0,0,0-2.67.41.41,0,0,1,0-.13,7.87,7.87,0,0,0,0-1.37,3.23,3.23,0,0,0,.3-1.36,4.19,4.19,0,0,0-.48-2,3.14,3.14,0,0,0-1.57-2.52L348.68,6a5.37,5.37,0,0,0-.51-.44,3.4,3.4,0,0,0-1.17-1,3.1,3.1,0,0,0-1.76-.74,2.8,2.8,0,0,0-1.45.29l-.24.14-.08,0h-.32a2.61,2.61,0,0,0-2.31,1,3.23,3.23,0,0,0-1.17,1.29,5.29,5.29,0,0,0-.52,1.81c-.07.51-.14,1.06-.21,1.66s-.13,1.18-.17,1.71-.08,1.08-.08,1.36a9.92,9.92,0,0,0,.14,1.61,2.6,2.6,0,0,1,.05.39,3.29,3.29,0,0,0-.26,1.93,3.43,3.43,0,0,0,.09.44,7.45,7.45,0,0,0-.25,2.62c0,.47.08,1,.13,1.43a3.64,3.64,0,0,0-.24.68,5.7,5.7,0,0,0-.13,1.25q0,.69,0,1.38a4.1,4.1,0,0,1-.36,1.07,3,3,0,0,0-.15.45,13,13,0,0,0-.31,2.41c0,.73,0,1.49,0,2.27l.07,2.16a6.26,6.26,0,0,1,0,.76,0,0,0,0,1,0,0,2.78,2.78,0,0,0-.24,3.14v0a7,7,0,0,0-.06,1.45,3,3,0,0,0-.16,1.22,3.68,3.68,0,0,0,.26,2.11,2.84,2.84,0,0,0-.15.93,3.1,3.1,0,0,0,.74,2c0,.07,0,.15,0,.22a3.15,3.15,0,0,0-.14,1.29,4,4,0,0,0-.27,1.4,3.22,3.22,0,0,0,.27,1.3,2.59,2.59,0,0,0-.53,1,2.92,2.92,0,0,0,.27,2.06.72.72,0,0,1-.11.25A2.77,2.77,0,0,0,337,55a7.22,7.22,0,0,0,1.5,2.33,3.13,3.13,0,0,0,2.38,2.39l.19.06a5.49,5.49,0,0,0,2,.53,4,4,0,0,0,2.22-.48,2.71,2.71,0,0,0,.75.16,2.77,2.77,0,0,0,1.79-.5l.77.09a5.76,5.76,0,0,0,1.63-.11,4.32,4.32,0,0,0,.87.17,4.51,4.51,0,0,0,1.67-.2,5.31,5.31,0,0,1,.6.12,11.37,11.37,0,0,0,2,.35,4.47,4.47,0,0,0,1.76-.2,4.32,4.32,0,0,0,.8.14,3.77,3.77,0,0,0,.58,0,2.14,2.14,0,0,0,.43.07,3.35,3.35,0,0,0,1.31-.14,6.07,6.07,0,0,0,1,.21c.65.11,1.32.2,2,.26.35,0,.71,0,1.06.06h.14a2.65,2.65,0,0,1,1.05.34,3.07,3.07,0,0,0,1.29.42,2.88,2.88,0,0,0,1.49-.27,5.66,5.66,0,0,1,1.08.18,2.28,2.28,0,0,0,.51.09,2.56,2.56,0,0,0,2.07-.71l0,0a2.9,2.9,0,0,0,.38-.33,4.13,4.13,0,0,0,1.89-1.41,17.26,17.26,0,0,0,1.15-1.73,2.82,2.82,0,0,0,0-2.73C375.15,53.77,374.94,53.36,374.72,52.92Z"/><path class="fabdeba6-f0c0-4f71-b28a-e15bfaefa798" d="M419.55,24.58a17.84,17.84,0,0,0-.21-2.76,2.6,2.6,0,0,1,.1-1.08,3,3,0,0,0-.26-2.19,6.36,6.36,0,0,0-.22-2.21l-.06-.18a5.48,5.48,0,0,0-1.56-2.31,6.36,6.36,0,0,1-.51-.52,3.25,3.25,0,0,0-2-1.07l-2.9-.35a2.53,2.53,0,0,0-1.42.22,4.78,4.78,0,0,0-2.35,2.32,6.53,6.53,0,0,0-.67,2.93,5,5,0,0,0,.05.67,3.35,3.35,0,0,0-.34.81,2.93,2.93,0,0,0,.2,2.09,3.46,3.46,0,0,0-.05,2,4.34,4.34,0,0,0-.13,1,5.8,5.8,0,0,0,.34,1.92,8,8,0,0,1-.09,1c-.08.43-.17.84-.28,1.23a2.8,2.8,0,0,0,0,1.62,2.81,2.81,0,0,0-.1.31,2.77,2.77,0,0,0-.46,1l-.05.15a2.72,2.72,0,0,0-.05,1.55,3.32,3.32,0,0,0,.19,2l.06.16a4.84,4.84,0,0,0,.19,1.19,3.77,3.77,0,0,0-.48,2.1,3,3,0,0,0,0,.65,3.42,3.42,0,0,0,.09.63,4.21,4.21,0,0,0,0,.71,4,4,0,0,0-.45,1.16,3,3,0,0,0,.09,1.46,6.48,6.48,0,0,0,.33.79q0,.31,0,.69a5,5,0,0,0-.16.89,2.62,2.62,0,0,0,0,.28,3.52,3.52,0,0,0-.3,1.5,2.56,2.56,0,0,0,0,.47,2.65,2.65,0,0,0-.37,1.28,4,4,0,0,0-.61,1.69c-.17.21-.35.46-.53.72l-.21.3a2.39,2.39,0,0,0-1.48,1.25l-.54.18a4,4,0,0,0-.72.33,5.2,5.2,0,0,0-1,.19l-.41-.08a2.4,2.4,0,0,0-1.53.33,3.89,3.89,0,0,0-1.42-.46l-.53,0c-.7,0-1.35.08-2,.16a3.9,3.9,0,0,1-.45-.19,3,3,0,0,0-1-.3,3.42,3.42,0,0,0-1,0h0a5.16,5.16,0,0,0-.84-.21,3,3,0,0,0-1.2-.38h0a7.26,7.26,0,0,0-1.72-1.33,5.1,5.1,0,0,1-.67-.43,9.45,9.45,0,0,0-1.8-2.52,2,2,0,0,1-.51-.85,6.23,6.23,0,0,0-.2-2,1.25,1.25,0,0,0-.06-.18c0-.19,0-.38,0-.59a3.67,3.67,0,0,0,.12-.94,6.49,6.49,0,0,0-.41-2.2,2.06,2.06,0,0,1,.24-.8,2.85,2.85,0,0,0,0-2.17l0-.09a3,3,0,0,0-.31-1.81,2.35,2.35,0,0,0,0-.26,3.1,3.1,0,0,0-.35-1.37,5,5,0,0,0-.35-1.68,4.17,4.17,0,0,0,.16-1.19,6.27,6.27,0,0,0-.17-1.38,4.6,4.6,0,0,0,.17-1.25,10.33,10.33,0,0,0-.14-1.62,1.09,1.09,0,0,1,0-.29,3.87,3.87,0,0,0,.29-1.51,4,4,0,0,0-.06-.69,3.94,3.94,0,0,0,.2-1.25,7.94,7.94,0,0,0-.05-.89,5.31,5.31,0,0,0,.17-.71,6.06,6.06,0,0,0,.27-1.46c.05-.62.08-1.07.08-1.35a4.73,4.73,0,0,0-.34-1.71,3.61,3.61,0,0,0,.14-1,6.76,6.76,0,0,0-.37-2.16,1,1,0,0,1,0-.24c0-.24,0-.47,0-.7a6.6,6.6,0,0,0-.06-1.53,3.1,3.1,0,0,0-.67-1.53,6.22,6.22,0,0,0-2.41-1.84,7.56,7.56,0,0,0-2.35-.61,4.73,4.73,0,0,0-3.23.66A4.12,4.12,0,0,0,374.25,11a7,7,0,0,0-.28,2.05,4.49,4.49,0,0,1-.08.83,1.55,1.55,0,0,0,0,.21,4,4,0,0,0-.29,1.52,5.13,5.13,0,0,0,.14,1.17c0,1.25-.07,2.5-.19,3.74s-.26,2.78-.35,4.17a3,3,0,0,0,.3,1.48,2.61,2.61,0,0,1,.23,1.53,26.75,26.75,0,0,0-.26,3.67,4.32,4.32,0,0,0,.05.62,4.37,4.37,0,0,0-.19,1.26,5,5,0,0,0,.27,1.64,2.88,2.88,0,0,1-.06.59,8.14,8.14,0,0,0-.21,1.88,3.08,3.08,0,0,0,.37,1.44,1.8,1.8,0,0,1,.14.87c0,1,0,1.9,0,2.71a1.36,1.36,0,0,0,0,.2,3.32,3.32,0,0,0,0,2.44,2.14,2.14,0,0,0,.1.22,5.81,5.81,0,0,0,.05,1.61,4,4,0,0,0,.36,1.41v.12a5.8,5.8,0,0,0,.34,2.32,5.11,5.11,0,0,0,.22.48,9.5,9.5,0,0,0,.68,1l.15.19a3.15,3.15,0,0,0,1.08,2.11A3.28,3.28,0,0,0,378.14,56a1.8,1.8,0,0,1,.43.38,3.7,3.7,0,0,1,.44.75,3.22,3.22,0,0,0,1.92,1.77l.33.2.18.18a6.78,6.78,0,0,0,.91.77,3.59,3.59,0,0,0,.6.42,3.82,3.82,0,0,0,1,.89,3.65,3.65,0,0,0,.53.25l1.69.61a6.53,6.53,0,0,0,1.92,1.13,16,16,0,0,0,2.29.67l1.86.39a2.9,2.9,0,0,1,.79.29,3.08,3.08,0,0,0,1.18.38,2.58,2.58,0,0,0,1.57-.31,6.13,6.13,0,0,0,.62,0l.95,0a6.11,6.11,0,0,0,1.48-.08,3,3,0,0,0,.76.19,2.64,2.64,0,0,0,1.52-.27.89.89,0,0,1,.44-.1,5.24,5.24,0,0,0,2.08-.38,3.44,3.44,0,0,0,.86-.08,6.23,6.23,0,0,0,.86-.26h.1a2.59,2.59,0,0,0,1.69-.37,5.74,5.74,0,0,1,.68-.36,1.12,1.12,0,0,1,.4-.09,2.43,2.43,0,0,0,1.87-1.2,2.4,2.4,0,0,0,.86-.62,2.47,2.47,0,0,1,.57-.48,3.75,3.75,0,0,0,1.65-1.89l.22-.19A2.46,2.46,0,0,0,415,56.15l.1-.15a2.45,2.45,0,0,0,1.17-2,2.82,2.82,0,0,0,.35-.84,2.41,2.41,0,0,0,.38-1.09,4,4,0,0,0-.06-1.35,3.34,3.34,0,0,0,.48-1.8v-.08a2.67,2.67,0,0,0,.27-1.93,2.75,2.75,0,0,0,.3-2.78c0-.07.06-.17.1-.28a2.56,2.56,0,0,0,.21-1,3.65,3.65,0,0,0-.07-.72,3.44,3.44,0,0,0,.13-1,3,3,0,0,0,0-2.08,4,4,0,0,0,.27-.9,11.69,11.69,0,0,0,.18-2.06v-.77c0-.05.05-.1.07-.16a3.61,3.61,0,0,0,.33-1.51,3.13,3.13,0,0,0-.34-1.39,3.42,3.42,0,0,0,0-1.68,3.12,3.12,0,0,0,.64-1.94,5.14,5.14,0,0,0-.21-1.45,6.11,6.11,0,0,1,.07-.86A11,11,0,0,0,419.55,24.58Z"/><path class="fabdeba6-f0c0-4f71-b28a-e15bfaefa798" d="M436.65,25.64a5,5,0,0,0,1.34,0,7.66,7.66,0,0,0,1.4.32,7.77,7.77,0,0,0,1,.08l.23,0a1.44,1.44,0,0,1,.54.18,3.17,3.17,0,0,0,1.05.35,2.69,2.69,0,0,0,1.2-.1,3.63,3.63,0,0,1,1.55-.08h.14a4.85,4.85,0,0,1,1.52.47,3,3,0,0,0,1,.34,2.59,2.59,0,0,0,1,0,4.05,4.05,0,0,0,.62-.22,7.57,7.57,0,0,0,1.29.29,5.92,5.92,0,0,0,2-.05,4.36,4.36,0,0,0,1.47.51l.2,0a2.88,2.88,0,0,0,.88.27,2.54,2.54,0,0,0,1,0,3.58,3.58,0,0,0,.45.09,5.52,5.52,0,0,0,1.4,0,3.45,3.45,0,0,0,1.07-.28l.46,0,.21,0a2.54,2.54,0,0,0,1.4-.15l.28-.13a2.45,2.45,0,0,0,1.54-.26,2.29,2.29,0,0,0,.77-.68A2.91,2.91,0,0,0,465,24.16V24a2.76,2.76,0,0,0,.12-2.1l0-.16c0-.35-.07-.69-.13-1.05a3.59,3.59,0,0,0-2.22-2.66,4.48,4.48,0,0,0-1.22-.64,3.76,3.76,0,0,0-.86-.47,3.06,3.06,0,0,0-1.22-.47,2.55,2.55,0,0,0-1.4.16.86.86,0,0,1-.48.06h0a4.23,4.23,0,0,1-1.12-.38,3,3,0,0,0-1-.31,2.65,2.65,0,0,0-1.4.16h0a4.19,4.19,0,0,0-2,.25c-.33,0-.67,0-1,0a5.56,5.56,0,0,1-.71,0,4.33,4.33,0,0,0-1.45-.47,5.77,5.77,0,0,0-1.6,0,3.31,3.31,0,0,1-.44-.1,2.45,2.45,0,0,0-.37-.08l-1.21-.18a2.2,2.2,0,0,1-.6-.15,2.59,2.59,0,0,0-.61-.15,2.56,2.56,0,0,0-1.26.11l-.2.08c-.69-.1-1.38-.22-2.09-.36-.14,0-.27,0-.41-.06a7.21,7.21,0,0,0-2.32,0,3.66,3.66,0,0,0-.73-.16,3.94,3.94,0,0,0-.77,0,3.41,3.41,0,0,1-.55,0,.41.41,0,0,1-.17-.06,5.49,5.49,0,0,0-1.91-.73,7.71,7.71,0,0,0-.93-.65,8.51,8.51,0,0,0-1.25-.62,5,5,0,0,0-1.27-.34l-.66-.05a4.59,4.59,0,0,0-1.76.3,4.36,4.36,0,0,0-1.38.72,3.09,3.09,0,0,0-.93.55,2.48,2.48,0,0,0-.78,1.41,23,23,0,0,0-.31,2.73,11.46,11.46,0,0,0,.09,2,4,4,0,0,0-.34,1.18,3,3,0,0,0,.28,1.65,9,9,0,0,0-.5,2.91,4.84,4.84,0,0,0,.27,1.65.93.93,0,0,1,0,.26,6.8,6.8,0,0,0-.17,1.61,2.55,2.55,0,0,0,0,.39,2,2,0,0,0,0,.35,8,8,0,0,0,.2,1.65c.09.37.17.75.25,1.13a2.84,2.84,0,0,0,0,2.63c0,.14,0,.28,0,.41,0,.4,0,.8,0,1.21a5,5,0,0,0,.09.94,5.35,5.35,0,0,0-.06,2c0,.09,0,.17,0,.25a4.1,4.1,0,0,0-.54,2,2.82,2.82,0,0,0-.07,2.79,1.22,1.22,0,0,0,0,.17,3.09,3.09,0,0,0-.06,1.71l0,.13a6.9,6.9,0,0,0-.27,2,6.51,6.51,0,0,0,.4,2.21,10.17,10.17,0,0,1-.06,1v0a2.78,2.78,0,0,0-.21,2.2,3.59,3.59,0,0,0,.18,1,4.43,4.43,0,0,0-.18,1.27,9.9,9.9,0,0,0,.17,1.72,2.73,2.73,0,0,0-.2,2,3.19,3.19,0,0,0,.38.89,4.73,4.73,0,0,0,.28.73,6.38,6.38,0,0,0,.25.83l.09.22a6.08,6.08,0,0,0,1,1.51,4.56,4.56,0,0,0,.4,1.32,3.59,3.59,0,0,0,.4.64,3.39,3.39,0,0,0,.63,1,3.29,3.29,0,0,0,1.88,1,4.73,4.73,0,0,0,2.09.82,6.37,6.37,0,0,0,3.1-.3,1,1,0,0,1,.26,0c.15,0,.32.06.49.1a2.87,2.87,0,0,0,.38.08,4.23,4.23,0,0,0,1.55-.06,3.78,3.78,0,0,0,.74.17,3,3,0,0,0,.84,0,2.68,2.68,0,0,0,.49.11,3.29,3.29,0,0,0,1.32-.08,2.4,2.4,0,0,0,.62-.26c.15,0,.3.06.46.09a4.55,4.55,0,0,0,.53,0l.25,0a3.41,3.41,0,0,0,.46.1,2.74,2.74,0,0,0,1.07-.06l.33.06a2.49,2.49,0,0,0,1.16-.09,5.79,5.79,0,0,0,.77.15,5.51,5.51,0,0,0,.57.06,3.91,3.91,0,0,0,1.29.41,3.58,3.58,0,0,0,.58.05c.18.09.34.17.49.26a3.25,3.25,0,0,0,1.05.35,2.52,2.52,0,0,0,1.06-.05l.24,0a7.14,7.14,0,0,0,1.26.07h.05a7.12,7.12,0,0,0,1.21.3,10.58,10.58,0,0,0,3,0,10.33,10.33,0,0,0,1.75-.4,4.56,4.56,0,0,0,1,0,9.55,9.55,0,0,0,1.53-.21,5.67,5.67,0,0,0,1.64-.64A2.87,2.87,0,0,0,464,67.51a3.31,3.31,0,0,0-.27-1.72,4.09,4.09,0,0,0,0-.63,3.33,3.33,0,0,0-.59-1.48,7.51,7.51,0,0,0-.77-.92A3.6,3.6,0,0,0,461,60.88a6.42,6.42,0,0,0-2.71-1.13,1.9,1.9,0,0,0-.25,0,11.33,11.33,0,0,0-1.82-.06c-.22,0-.44,0-.63,0a3.09,3.09,0,0,0-1.24-.47,2.58,2.58,0,0,0-.68,0,4.38,4.38,0,0,0-1.85.58,3.5,3.5,0,0,1-.65,0,1.36,1.36,0,0,1-.29-.06c-.25-.06-.49-.11-.74-.15a7.3,7.3,0,0,0-.94-.07A3,3,0,0,0,448,59l-.51,0a3.5,3.5,0,0,1-.71,0l-.45-.07a5.29,5.29,0,0,0-1.12-.05l-.41-.19a2.93,2.93,0,0,0-.69-.18,2.63,2.63,0,0,0-1.45.19,1.82,1.82,0,0,1-.66.13,13.45,13.45,0,0,1-1.56,0c-.52,0-1-.07-1.36-.13q-.31,0-.66-.06a4.54,4.54,0,0,0-1.05-.28l-.32,0a9,9,0,0,0-1.27,0,3.33,3.33,0,0,0-.63-1.63,7.21,7.21,0,0,0-.26-1.62,3.12,3.12,0,0,0,.43-1.61,4.43,4.43,0,0,0-.23-1.41,5.89,5.89,0,0,0,.23-1.63c0-.14,0-.29,0-.44a3.16,3.16,0,0,0,.29-1.34,2.86,2.86,0,0,0-.06-.58l.09-.17a2.81,2.81,0,0,0,0-2.47,2,2,0,0,1-.13-1l.17,0a3.7,3.7,0,0,1,1.33-.06l.21,0,.44.07a8.41,8.41,0,0,0,2.35,0,4.76,4.76,0,0,0,.52.1,5.18,5.18,0,0,0,1,0,2.71,2.71,0,0,0,.84-.2l.13,0,.3,0a5.8,5.8,0,0,0,1.43.06,4.52,4.52,0,0,0,1,.26,4.8,4.8,0,0,0,1.82-.07,5.16,5.16,0,0,0,1.2.31,4,4,0,0,0,.59,0,5.08,5.08,0,0,0,1.12.32,4,4,0,0,0,1.82-.15.69.69,0,0,1,.36,0,1.77,1.77,0,0,1,.25.08,4.16,4.16,0,0,0,.94.27l.46,0a3.16,3.16,0,0,0,1,.36,3.37,3.37,0,0,0,1.19,0l.22,0a4.6,4.6,0,0,0,.74,0,3.17,3.17,0,0,0,.44.12l.16,0a2.73,2.73,0,0,0,1,0l.18,0a4.86,4.86,0,0,0,1.32,0l.11,0c.22,0,.44-.09.65-.15h.06a2.38,2.38,0,0,0,2.44-1,3.67,3.67,0,0,0,1.15-1.32,2.73,2.73,0,0,0,.16-2.14,3.24,3.24,0,0,0-.65-2.16v0a3.42,3.42,0,0,0-1.15-2.38,3.42,3.42,0,0,0-2.27-1.51,1.53,1.53,0,0,0-.3,0,2.72,2.72,0,0,1-.31,0,5.3,5.3,0,0,0-2.28-1,2.92,2.92,0,0,0-.51,0,3,3,0,0,0-.76-.22,4.69,4.69,0,0,0-1.12,0,8.18,8.18,0,0,0-2.52,0,2.43,2.43,0,0,1-.85,0,10.26,10.26,0,0,1-1.43-.28,4.54,4.54,0,0,0-.66-.14,5.76,5.76,0,0,0-1.32,0,3,3,0,0,0-.52-.11,4.36,4.36,0,0,0-1.25,0l-.26,0h-.05a4.76,4.76,0,0,0-.61-.13,3.57,3.57,0,0,0-.46,0,2.61,2.61,0,0,0-.76-.21l-.14,0a2.47,2.47,0,0,0-1.92.62,2.84,2.84,0,0,0-.42-.09,3.36,3.36,0,0,0-1.62.15c-.22,0-.55-.12-1.19-.21l-.44-.08a4.26,4.26,0,0,0-1.6.07,7.93,7.93,0,0,1-1.39-.36l-.15-.06c0-.12,0-.24,0-.37a3.2,3.2,0,0,0,.19-1.09,3.77,3.77,0,0,0-.08-.81,4.26,4.26,0,0,0,.08-.8,3.62,3.62,0,0,0-.15-1c0-.11,0-.22,0-.34a23.75,23.75,0,0,0-.23-3.2l0-.09a6.36,6.36,0,0,0,.66.17A4.37,4.37,0,0,0,436.65,25.64Z"/><path class="fabdeba6-f0c0-4f71-b28a-e15bfaefa798" d="M482.31,108.2a3.59,3.59,0,0,0-1.18-2.39,4.68,4.68,0,0,1-.29-.67,4.36,4.36,0,0,0-4.64-3,1.44,1.44,0,0,1-.6-.06,8.05,8.05,0,0,0-4-.11,3,3,0,0,0-2.32,3,4.79,4.79,0,0,0-.58,1.45h0a2.26,2.26,0,0,0-.8.45,4.27,4.27,0,0,0-.91,1l-.12,0a3.75,3.75,0,0,0-.84.37,7.53,7.53,0,0,0-1,.11,4.69,4.69,0,0,0-1.41.47l-.51,0a3.38,3.38,0,0,0-1.42.39,7.28,7.28,0,0,0-1.24.19l-.1,0a3.37,3.37,0,0,0-.35-.22,4.67,4.67,0,0,0-1.74-.64,3.23,3.23,0,0,0-1,0,9.06,9.06,0,0,0-1.49-.21,3.16,3.16,0,0,0-2-.91,3.19,3.19,0,0,0-1.46-.91,4.23,4.23,0,0,0-.68-.52,1.9,1.9,0,0,1-.56-.43,3.22,3.22,0,0,0-.24-.28,2.07,2.07,0,0,0-.14-.39c0-.09-.48-1.05-.51-1.13a6,6,0,0,0-.81-1.6,3.39,3.39,0,0,0-.79-.89c-.09-.18-.21-.35-.31-.51a7,7,0,0,0-1.79-1.82l-.53-.35-.47-.49a5.61,5.61,0,0,0-.62-.58,2.68,2.68,0,0,0-.26-.47A3.47,3.47,0,0,0,443,95.92a2.09,2.09,0,0,0-.19-.21,11.44,11.44,0,0,0-2.19-1.81,2.69,2.69,0,0,1-.64-.59,3.37,3.37,0,0,0-1-.87,4.83,4.83,0,0,0-.92-.38,3.84,3.84,0,0,0-2.54-1.48,3.26,3.26,0,0,0-.54,0l-.1-.06a5.73,5.73,0,0,0-2.41-.94,3.14,3.14,0,0,0-1.39-.54,4.43,4.43,0,0,0-.62,0l-.1,0a2.85,2.85,0,0,0-1.85-.22l-.87-.13a3.73,3.73,0,0,0-1.22-.1,3.8,3.8,0,0,0-.84,0,9,9,0,0,0-1.26.12c-.42.07-.82.17-1.19.27h0a4.32,4.32,0,0,0-1.39.06,4,4,0,0,0-1.06-.27,2.52,2.52,0,0,0-2.17.76l-.26,0a2.85,2.85,0,0,0-2.65,1l-.08,0a2.8,2.8,0,0,0-1.36.78,3,3,0,0,0-1.05.84,2.52,2.52,0,0,0-2,1.62,2.46,2.46,0,0,0-1.21.76c-.14.15-1,1.06-1.07,1.22l-1.71,2.71c-.09.18-.2.48-.32.8l-.08.13a7,7,0,0,0-1.06.89,1.28,1.28,0,0,1-.56.3,2.58,2.58,0,0,0-.68.35,2.44,2.44,0,0,0-1.47.55,2.6,2.6,0,0,0-2,.42,9.82,9.82,0,0,0-1.49-.16,3.47,3.47,0,0,0-1-.27,4,4,0,0,0-1.73.21l-.36.13-.1,0a8.19,8.19,0,0,0-1.24-.49,4.53,4.53,0,0,0-1.43-.74l-.51-.14a5.81,5.81,0,0,0-1.42-.82,9.42,9.42,0,0,0-1-.35,6.36,6.36,0,0,0-.85-.58l-.12-.07a5.77,5.77,0,0,0-.91-1.28,3.38,3.38,0,0,0-.69-.57,3.34,3.34,0,0,0-.37-.76,3.09,3.09,0,0,0-.8-.85,3.52,3.52,0,0,0-.31-.5A13.51,13.51,0,0,0,384,92l-.54-.33c-.15-.16-.31-.32-.47-.47a5.31,5.31,0,0,0-.62-.55,3,3,0,0,0-.26-.46,3.3,3.3,0,0,0-1.5-1.22l-.19-.21A10.31,10.31,0,0,0,378.18,87a2.58,2.58,0,0,1-.65-.57,3.09,3.09,0,0,0-1-.82,4.1,4.1,0,0,0-.92-.34A3.66,3.66,0,0,0,373,83.93a3.25,3.25,0,0,0-.54,0l-.1-.06A5.6,5.6,0,0,0,370,83a3,3,0,0,0-1.39-.49,3.21,3.21,0,0,0-.62,0l-.1,0a2.85,2.85,0,0,0-1.86-.14l-.87-.1a3.92,3.92,0,0,0-1.22-.05,4.71,4.71,0,0,0-.85,0q-.63.06-1.26.18a12.07,12.07,0,0,0-1.19.32h0a4.13,4.13,0,0,0-1.4.11,4,4,0,0,0-1.07-.22,2.6,2.6,0,0,0-2.17.84l-.26,0A3,3,0,0,0,353,84.54l-.08,0a2.94,2.94,0,0,0-1.36.83,3.19,3.19,0,0,0-1.05.89,2.67,2.67,0,0,0-.88.33A2.62,2.62,0,0,0,348.52,88a2.68,2.68,0,0,0-1.21.8,5.51,5.51,0,0,0-.38.5,2.56,2.56,0,0,0-.63.64.71.71,0,0,0-.1.14,2.54,2.54,0,0,0-1,.91,2.67,2.67,0,0,0-.41,1.43,2.4,2.4,0,0,0,0,.37,1.28,1.28,0,0,0-.14.21h-.32a2.84,2.84,0,0,0-.81.51,4.76,4.76,0,0,0-.91,1.13l-.13.05a4.91,4.91,0,0,0-.85.45c-.34.05-.67.11-1,.18a5.34,5.34,0,0,0-1.42.59l-.51.06a3.88,3.88,0,0,0-1.43.51,7.8,7.8,0,0,0-1.25.29l-.1,0a3.13,3.13,0,0,0-.36-.19,4.21,4.21,0,0,0-1.74-.5,3.29,3.29,0,0,0-1,.11,9.11,9.11,0,0,0-1.49-.09,13.78,13.78,0,0,1-3.5-1.54,3.39,3.39,0,0,0-.68-.46,1.71,1.71,0,0,1-.56-.39l-.24-.26c0-.11-.08-.23-.15-.38s-.48-1-.51-1.09a5.77,5.77,0,0,0-.81-1.53,2.88,2.88,0,0,0-.81-.82,3.41,3.41,0,0,0-.31-.49A6,6,0,0,0,322,87.49c-.17-.11-.35-.21-.54-.31l-.47-.46a5,5,0,0,0-.62-.52,2.51,2.51,0,0,0-.26-.45,3.08,3.08,0,0,0-1.51-1.16c-.07-.07-.13-.15-.19-.2a10.38,10.38,0,0,0-2.19-1.63,2.42,2.42,0,0,1-.65-.54,3.14,3.14,0,0,0-1.06-.78,4.49,4.49,0,0,0-.92-.3A3.5,3.5,0,0,0,311,79.86a3.25,3.25,0,0,0-.54,0l-.1-.06a5.55,5.55,0,0,0-2.43-.74,3,3,0,0,0-1.39-.43,4.29,4.29,0,0,0-.63,0l-.1,0a2.83,2.83,0,0,0-1.86-.06l-.87-.07a4.22,4.22,0,0,0-1.23,0,4.1,4.1,0,0,0-.85,0,11.13,11.13,0,0,0-1.26.23,9.77,9.77,0,0,0-1.19.37h0a4.72,4.72,0,0,0-1.4.17,4.11,4.11,0,0,0-1.07-.18,2.77,2.77,0,0,0-2.18.94h-.26A3.11,3.11,0,0,0,291,81.28l-.08,0a3.07,3.07,0,0,0-1.37.88,3.41,3.41,0,0,0-1.05.93,2.57,2.57,0,0,0-.87.37,2.81,2.81,0,0,0-1.13,1.41,2.81,2.81,0,0,0-1.21.86c-.14.16-1,1.14-1.08,1.3-.57,1-1.14,1.91-1.72,2.86-.06.13-.14.34-.23.57a2.56,2.56,0,0,0-.22.39,8.19,8.19,0,0,0-1.06,1,1.54,1.54,0,0,1-.56.35,3.11,3.11,0,0,0-.68.4,2.72,2.72,0,0,0-1.48.67,2.78,2.78,0,0,0-2,.59,9.52,9.52,0,0,0-1.5,0,3.67,3.67,0,0,0-1-.19,4.19,4.19,0,0,0-1.75.36l-.36.16-.1,0a7.79,7.79,0,0,0-1.24-.4,4,4,0,0,0-1.44-.62l-.51-.1a5.72,5.72,0,0,0-1.42-.71,8.92,8.92,0,0,0-1-.26,5.22,5.22,0,0,0-.85-.52l-.12-.06a5.36,5.36,0,0,0-.91-1.2,3.26,3.26,0,0,0-.7-.52,2.7,2.7,0,0,0-.36-.72,2.74,2.74,0,0,0-.8-.79,3.94,3.94,0,0,0-.31-.48,12.5,12.5,0,0,0-2.62-2.29l-.54-.29-.48-.43a5.9,5.9,0,0,0-.62-.5,2.43,2.43,0,0,0-.26-.44,2.94,2.94,0,0,0-1.5-1.1c-.07-.07-.13-.14-.19-.19a10.19,10.19,0,0,0-2.2-1.54,2.27,2.27,0,0,1-.65-.51,2.82,2.82,0,0,0-1.06-.74,4.36,4.36,0,0,0-.92-.26,3.37,3.37,0,0,0-2.56-1.18,4.9,4.9,0,0,0-.54,0l-.1,0a5.24,5.24,0,0,0-2.43-.64,2.81,2.81,0,0,0-1.39-.37,4.1,4.1,0,0,0-.62,0l-.1,0a2.85,2.85,0,0,0-1.87,0l-.87,0a4.08,4.08,0,0,0-1.22,0,4.3,4.3,0,0,0-.86.05,11.39,11.39,0,0,0-1.26.28,11.83,11.83,0,0,0-1.19.41h0a4.77,4.77,0,0,0-1.4.23,3.49,3.49,0,0,0-1.07-.13,2.83,2.83,0,0,0-2.18,1h-.26a3.3,3.3,0,0,0-2.67,1.34l-.08,0a3.28,3.28,0,0,0-1.36.94,3.83,3.83,0,0,0-1.06,1,3.12,3.12,0,0,0-.87.4,2.94,2.94,0,0,0-1.12,1.46,3,3,0,0,0-1.22.91,5.71,5.71,0,0,0-.38.52,3.18,3.18,0,0,0-.63.69,1.3,1.3,0,0,0-.1.15,2.87,2.87,0,0,0-1,1,2.83,2.83,0,0,0-.41,1.46,2.19,2.19,0,0,0,0,.36,1.76,1.76,0,0,0-.14.23h-.32a3,3,0,0,0-.82.58,5.59,5.59,0,0,0-.91,1.2l-.12.07a5.17,5.17,0,0,0-.85.51,8,8,0,0,0-1,.27,5.36,5.36,0,0,0-1.42.7l-.51.1a4.4,4.4,0,0,0-1.44.62,7.79,7.79,0,0,0-1.24.4l-.1,0-.36-.16a4.16,4.16,0,0,0-1.75-.36,3.67,3.67,0,0,0-1,.19,10.72,10.72,0,0,0-1.49,0,2.81,2.81,0,0,0-2-.59,2.72,2.72,0,0,0-1.47-.67,3,3,0,0,0-.69-.4,1.54,1.54,0,0,1-.56-.35l-.24-.24a1.46,1.46,0,0,0-.15-.36c0-.09-.48-1-.5-1.05a5.18,5.18,0,0,0-.82-1.47,2.76,2.76,0,0,0-.8-.76,3.7,3.7,0,0,0-.31-.46,5.54,5.54,0,0,0-1.8-1.53c-.17-.09-.35-.18-.54-.26l-.47-.42a5.61,5.61,0,0,0-.62-.47,2.34,2.34,0,0,0-.26-.43,2.81,2.81,0,0,0-1.51-1l-.19-.18a9.15,9.15,0,0,0-2.19-1.45,2.21,2.21,0,0,1-.66-.49,2.64,2.64,0,0,0-1.05-.69,4.28,4.28,0,0,0-.92-.23,3.21,3.21,0,0,0-2.56-1.07,3.31,3.31,0,0,0-.54.06l-.1,0a5.15,5.15,0,0,0-2.43-.54,2.76,2.76,0,0,0-1.39-.32,4,4,0,0,0-.62.08l-.1,0a2.86,2.86,0,0,0-1.87.08h-.87a4,4,0,0,0-1.22.1,3.79,3.79,0,0,0-.85.09,10.34,10.34,0,0,0-1.27.33c-.42.14-.82.3-1.19.46h0a4.52,4.52,0,0,0-1.39.28,3.92,3.92,0,0,0-1.07-.09A3,3,0,0,0,169,80.84l-.26,0a3.42,3.42,0,0,0-2.67,1.44l-.08.06a3.36,3.36,0,0,0-1.36,1,3.79,3.79,0,0,0-1,1,2.94,2.94,0,0,0-.87.43,3.19,3.19,0,0,0-1.13,1.51,3,3,0,0,0-1.21,1c-.14.18-1,1.22-1.07,1.39-.58,1-1.15,2-1.72,3-.07.14-.15.35-.24.59a4,4,0,0,0-.21.41,8.93,8.93,0,0,0-1.07,1.06,1.87,1.87,0,0,1-.56.39,12.26,12.26,0,0,1-2.15,1.25,3,3,0,0,0-2,.75,8.13,8.13,0,0,0-1.49.08,3,3,0,0,0-1-.1,4.35,4.35,0,0,0-1.74.49l-.36.19-.1,0a6.67,6.67,0,0,0-1.25-.29,3.56,3.56,0,0,0-1.43-.51l-.51-.06a5.34,5.34,0,0,0-1.42-.59,9.45,9.45,0,0,0-1-.19,4.87,4.87,0,0,0-.85-.44l-.12,0a4.62,4.62,0,0,0-.91-1.13,2.65,2.65,0,0,0-.7-.46,2.73,2.73,0,0,0-.36-.7,2.5,2.5,0,0,0-.8-.72,2.58,2.58,0,0,0-.32-.45,10.59,10.59,0,0,0-2.61-2.08,4.41,4.41,0,0,0-.54-.24l-.47-.4a4.44,4.44,0,0,0-.62-.45,2.26,2.26,0,0,0-.26-.42,2.57,2.57,0,0,0-1.5-1l-.19-.18a8.35,8.35,0,0,0-2.2-1.36,2.05,2.05,0,0,1-.65-.46,2.55,2.55,0,0,0-1-.65,4.2,4.2,0,0,0-.92-.2,3.08,3.08,0,0,0-2.55-1,5,5,0,0,0-.54.08l-.1,0a5,5,0,0,0-2.42-.44,2.63,2.63,0,0,0-1.39-.26,4,4,0,0,0-.62.09l-.1,0a2.88,2.88,0,0,0-1.87.16l-.87,0a4.34,4.34,0,0,0-1.22.15,5.77,5.77,0,0,0-.85.12,12.15,12.15,0,0,0-1.26.39,11.82,11.82,0,0,0-1.19.51h0a4.64,4.64,0,0,0-1.39.34,4,4,0,0,0-1.07,0,3.15,3.15,0,0,0-2.17,1.2l-.26,0a3.61,3.61,0,0,0-2.66,1.56l-.08.06a3.57,3.57,0,0,0-1.36,1,3.91,3.91,0,0,0-1,1.06,2.84,2.84,0,0,0-.87.47,3.21,3.21,0,0,0-1.12,1.55,3.24,3.24,0,0,0-1.21,1,6.15,6.15,0,0,0-.38.56,3.21,3.21,0,0,0-.63.74.86.86,0,0,0-.1.16,3.18,3.18,0,0,0-1,1.07,3.05,3.05,0,0,0-.41,1.5c0,.12-.48.4-.46.52a.26.26,0,0,0-.06.18,3.33,3.33,0,0,0-.72.58,5.77,5.77,0,0,0-.91,1.28l-.12.07a6.36,6.36,0,0,0-.85.58,9.42,9.42,0,0,0-1,.35,5.81,5.81,0,0,0-1.42.82l-.51.14a4.33,4.33,0,0,0-1.43.74,8.19,8.19,0,0,0-1.24.49l-.1,0c-.11-.05-.25-.09-.36-.13a4,4,0,0,0-1.73-.21,3.47,3.47,0,0,0-1,.27,8.69,8.69,0,0,0-1.49.16,2.6,2.6,0,0,0-2-.42,2.52,2.52,0,0,0-1.47-.56,2.55,2.55,0,0,0-.68-.34,1.4,1.4,0,0,1-.56-.31,7,7,0,0,0-1-.88h0a2.24,2.24,0,0,0-.78-1.53,2.65,2.65,0,0,0-.38-1.23,2.4,2.4,0,0,0-.88-.8,2.9,2.9,0,0,0-.34-.36,2.17,2.17,0,0,0-.5-.46,4.21,4.21,0,0,0-.38-.48,2.46,2.46,0,0,0-1.21-.76,2.52,2.52,0,0,0-2-1.62,2.92,2.92,0,0,0-1-.84,2.8,2.8,0,0,0-1.36-.78l-.08,0a3.26,3.26,0,0,0-.42-.41c-.11-.24-.21-.48-.31-.73-.13.1-.24.23-.35.33a3.16,3.16,0,0,0-1.58-.2l-.26,0A2.5,2.5,0,0,0,62,88.59a4.41,4.41,0,0,0-1.07.26,4.32,4.32,0,0,0-1.39,0h0a10.2,10.2,0,0,0-1.18-.27,10.76,10.76,0,0,0-1.26-.13,4.57,4.57,0,0,0-.85,0,4.37,4.37,0,0,0-1.22.1l-.86.14a2.82,2.82,0,0,0-1.86.22l-.1,0a4.37,4.37,0,0,0-.62,0,3.07,3.07,0,0,0-1.38.55,5.76,5.76,0,0,0-2.42.93l-.1.06-.54,0A3.84,3.84,0,0,0,44.61,92a5.53,5.53,0,0,0-.92.37,3.6,3.6,0,0,0-1,.87,2.7,2.7,0,0,1-.65.59,11.39,11.39,0,0,0-2.18,1.81l-.19.21a3.44,3.44,0,0,0-1.5,1.28,3.2,3.2,0,0,0-.26.48c-.21.17-.69.36-.61.57,0,0-.47-.08-.47.49l-.54.35a5.35,5.35,0,0,0-2.6,2.61,3.76,3.76,0,0,0-.31.52,3.25,3.25,0,0,0-.8.89,3.77,3.77,0,0,0-.36.76,4.37,4.37,0,0,0-.69.6,6.5,6.5,0,0,0-.91,1.32l-.12.07a6.27,6.27,0,0,0-.84.62,9.52,9.52,0,0,0-1,.39,6.32,6.32,0,0,0-1.41.87l-.51.16a4.76,4.76,0,0,0-1.42.81,7.51,7.51,0,0,0-1.24.54l-.1,0-.36-.11a3.9,3.9,0,0,0-1.73-.15,3.84,3.84,0,0,0-1,.32,8.94,8.94,0,0,0-1.49.22,2.54,2.54,0,0,0-2-.34,2.34,2.34,0,0,0-1.46-.49,2.49,2.49,0,0,0-.68-.32,1.34,1.34,0,0,1-.55-.28,7.16,7.16,0,0,0-1.05-.84h0a2.36,2.36,0,0,0-1.24-1.86,2.27,2.27,0,0,1-.25-.59A3.12,3.12,0,0,0,7.76,103a1.46,1.46,0,0,1-.59.09,8.41,8.41,0,0,0-4,.85,4.28,4.28,0,0,0-2.45,3.48A5.88,5.88,0,0,0,0,109.25H0v0H0a7.1,7.1,0,0,1,.66.87c.22.34.43.68.64,1.08a2.66,2.66,0,0,0,.46.84,2.19,2.19,0,0,0,0,.36,2.52,2.52,0,0,0,.41,1.4,2.16,2.16,0,0,0,1,.82l.1.14a2.32,2.32,0,0,0,.63.58c.11.15.24.31.37.46a2.29,2.29,0,0,0,1.21.7,2.3,2.3,0,0,0,1.11,1.28,2.37,2.37,0,0,0,.87.26,2.66,2.66,0,0,0,1,.8,2.59,2.59,0,0,0,1.35.72l.08,0a2.76,2.76,0,0,0,2.65.92l.26,0a2.42,2.42,0,0,0,2.16.69,4,4,0,0,0,1.06-.3,4,4,0,0,0,1.38,0h0a10,10,0,0,0,1.19.23,10.53,10.53,0,0,0,1.25.1,3.8,3.8,0,0,0,.85-.07,4.36,4.36,0,0,0,1.21-.12l.87-.16a2.88,2.88,0,0,0,1.85-.25l.1-.05a4.43,4.43,0,0,0,.62,0,3.2,3.2,0,0,0,1.38-.57,5.79,5.79,0,0,0,2.41-1l.1-.06a4.89,4.89,0,0,0,.54,0,4,4,0,0,0,2.54-1.51,5.2,5.2,0,0,0,.91-.39,3.37,3.37,0,0,0,1-.87,2.75,2.75,0,0,1,.65-.6,11.7,11.7,0,0,0,2.18-1.81l.19-.22a3.41,3.41,0,0,0,1.49-1.28,2.68,2.68,0,0,0,.26-.47,6.64,6.64,0,0,0,.62-.57l.47-.49.54-.35a14.54,14.54,0,0,0,2.6-2.6,4.33,4.33,0,0,0,.31-.51,3.25,3.25,0,0,0,.8-.89,3.77,3.77,0,0,0,.36-.76,3.85,3.85,0,0,0,.69-.59,6.44,6.44,0,0,0,.91-1.31l.12-.07a5.83,5.83,0,0,0,.84-.61,9.49,9.49,0,0,0,1-.38,6.68,6.68,0,0,0,1.42-.85l.51-.16a4.67,4.67,0,0,0,1.42-.77,9.63,9.63,0,0,0,1.24-.53l.1,0,.36.13a3.8,3.8,0,0,0,1.73.17,3.51,3.51,0,0,0,1-.29,9.91,9.91,0,0,0,1.49-.18,2.61,2.61,0,0,0,2,.39,2.5,2.5,0,0,0,1.47.54,2.88,2.88,0,0,0,.68.34,1.39,1.39,0,0,1,.56.29,7.62,7.62,0,0,0,1.06.88,1.74,1.74,0,0,0,.21.37c.09.22.17.42.23.55.57.9,1.15,1.8,1.72,2.71.11.15.93,1.06,1.07,1.21a2.44,2.44,0,0,0,1.21.75A2.51,2.51,0,0,0,69,109.5a2.63,2.63,0,0,0,.87.29,3,3,0,0,0,1.05.84,2.72,2.72,0,0,0,1.36.78l.08,0a2.88,2.88,0,0,0,2.66,1l.26,0a2.5,2.5,0,0,0,2.16.78,4,4,0,0,0,1.07-.25,4.32,4.32,0,0,0,1.39.07h0a9.89,9.89,0,0,0,1.19.28,9,9,0,0,0,1.26.15,3.88,3.88,0,0,0,.85,0,4,4,0,0,0,1.22-.07l.87-.12a2.83,2.83,0,0,0,1.85-.18l.1,0a4.32,4.32,0,0,0,.62,0,3,3,0,0,0,1.39-.51,5.64,5.64,0,0,0,2.42-.86l.1-.06a4.87,4.87,0,0,0,.54,0,3.72,3.72,0,0,0,2.55-1.4,4.69,4.69,0,0,0,.92-.35,3.25,3.25,0,0,0,1-.83,2.58,2.58,0,0,1,.65-.57,10.89,10.89,0,0,0,2.19-1.72l.19-.21a3.24,3.24,0,0,0,1.5-1.22,3,3,0,0,0,.26-.46,5.31,5.31,0,0,0,.62-.55c.16-.15.31-.31.47-.47s.37-.21.54-.33c1.21-1,.53-.4,1.5-1.57a3.52,3.52,0,0,0,.31-.5,3,3,0,0,0,.75-.84c.3-.67,1.53-1.72,1.67-2.58a.38.38,0,0,0,0-.15,8,8,0,0,0,.75-.79,1.73,1.73,0,0,1,.56-.41,3.49,3.49,0,0,0,.68-.48,3.06,3.06,0,0,0,1.47-.83,3,3,0,0,0,2-.8,9.07,9.07,0,0,0,1.49-.13,3,3,0,0,0,1,.09,4.6,4.6,0,0,0,1.74-.53l.37-.2.1,0a7.4,7.4,0,0,0,1.24.27,3.68,3.68,0,0,0,1.43.49l.51,0a5.28,5.28,0,0,0,1.42.57,9.51,9.51,0,0,0,1,.17,4.87,4.87,0,0,0,.85.44l.12,0a4.76,4.76,0,0,0,.91,1.12,2.7,2.7,0,0,0,.7.45A2.61,2.61,0,0,0,127,98.79a2.55,2.55,0,0,0,.31.45,4,4,0,0,0,2.61,2.07c.17.09.35.16.54.24,0,.57.49.35.47.39-.08.23.4.33.63.45a1.64,1.64,0,0,0,.26.42,2.59,2.59,0,0,0,1.5,1c.07.06.13.13.19.17a8.79,8.79,0,0,0,2.19,1.37,2.09,2.09,0,0,1,.65.47,2.55,2.55,0,0,0,1,.65,4.2,4.2,0,0,0,.92.2,3.14,3.14,0,0,0,2.56,1,5,5,0,0,0,.54-.07l.1,0a5.1,5.1,0,0,0,2.42.48,2.74,2.74,0,0,0,1.39.28,4,4,0,0,0,.63-.09l.1,0a2.84,2.84,0,0,0,1.86-.13l.87,0A4.36,4.36,0,0,0,150,108a5.57,5.57,0,0,0,.85-.1,11.44,11.44,0,0,0,1.27-.36,11.8,11.8,0,0,0,1.19-.48h0a4.28,4.28,0,0,0,1.39-.3,3.28,3.28,0,0,0,1.07.08,3,3,0,0,0,2.18-1.13h.26a3.55,3.55,0,0,0,1.58-.47c.11.09.23.19.35.27l.31-.78a3.8,3.8,0,0,0,.42-.48l.08,0a3.46,3.46,0,0,0,1.37-1,3.76,3.76,0,0,0,1-1,2.94,2.94,0,0,0,.87-.43,3.11,3.11,0,0,0,1.12-1.51,3,3,0,0,0,1.22-1,4.8,4.8,0,0,0,.38-.54,3.6,3.6,0,0,0,.5-.53,4.46,4.46,0,0,0,.34-.42,3,3,0,0,0,.88-.94,2.89,2.89,0,0,0,.39-1.29,2.67,2.67,0,0,0,.78-1.65h0a9.49,9.49,0,0,0,1.06-1,1.57,1.57,0,0,1,.56-.39,3.34,3.34,0,0,0,.68-.45,3,3,0,0,0,1.47-.77,3,3,0,0,0,2-.72,9.15,9.15,0,0,0,1.49-.06,3.3,3.3,0,0,0,1,.12,4.34,4.34,0,0,0,1.75-.46l.36-.18.1,0a7.55,7.55,0,0,0,1.24.33,3.93,3.93,0,0,0,1.43.54l.52.07a5.45,5.45,0,0,0,1.42.63,7.38,7.38,0,0,0,1,.21,5,5,0,0,0,.85.47l.12.06a5.21,5.21,0,0,0,.92,1.16,3,3,0,0,0,.45.34,2.44,2.44,0,0,0,.15.35c.57,1,1.14,1.9,1.72,2.85.11.16.93,1.13,1.07,1.3a2.82,2.82,0,0,0,1.22.85,2.74,2.74,0,0,0,1.12,1.41,3,3,0,0,0,.87.37,3.2,3.2,0,0,0,1.06.92,3,3,0,0,0,1.36.89l.08,0a3.16,3.16,0,0,0,2.67,1.25h.26a2.72,2.72,0,0,0,2.17,1,3.84,3.84,0,0,0,1.08-.16,4.39,4.39,0,0,0,1.39.18h0a11.88,11.88,0,0,0,1.19.38,9.88,9.88,0,0,0,1.27.26,5,5,0,0,0,.85,0,4.12,4.12,0,0,0,1.22,0l.88,0a2.82,2.82,0,0,0,1.86,0l.1,0a4.16,4.16,0,0,0,.62,0,2.83,2.83,0,0,0,1.4-.39,5.46,5.46,0,0,0,2.43-.67l.1,0,.54,0a3.46,3.46,0,0,0,2.56-1.2,5.09,5.09,0,0,0,.92-.27,2.9,2.9,0,0,0,1-.75,2.52,2.52,0,0,1,.65-.52,9.13,9.13,0,0,0,2.2-1.54l.19-.19a3,3,0,0,0,1.51-1.1,3.18,3.18,0,0,0,.26-.44,4.12,4.12,0,0,0,.62-.5l.47-.43a4.63,4.63,0,0,0,.54-.29c1.21-.85.53-.35,1.51-1.45a3.19,3.19,0,0,0,.31-.47,2.51,2.51,0,0,0,.74-.78c.31-.65,1.55-1.6,1.68-2.45a.65.65,0,0,0,0-.14,8.62,8.62,0,0,0,.75-.73,1.56,1.56,0,0,1,.56-.37,3.2,3.2,0,0,0,.68-.42,12.51,12.51,0,0,1,3.5-1.35,9.39,9.39,0,0,0,1.5,0,3.33,3.33,0,0,0,1,.17A4.19,4.19,0,0,0,242,89l.37-.17.1,0a7.68,7.68,0,0,0,1.24.37,4,4,0,0,0,1.43.6l.52.09a6,6,0,0,0,1.42.69,9.35,9.35,0,0,0,1,.25,4.84,4.84,0,0,0,.86.5l.12.07a5.31,5.31,0,0,0,.91,1.19,2.92,2.92,0,0,0,.7.51,2.89,2.89,0,0,0,1.16,1.5,2.83,2.83,0,0,0,.31.48,4.51,4.51,0,0,0,2.62,2.28c.17.1.35.19.54.28,0,.58.49.39.47.44-.08.21.41.35.63.49a2.91,2.91,0,0,0,.26.45,2.87,2.87,0,0,0,1.5,1.09l.19.19a9.68,9.68,0,0,0,2.2,1.55,2.32,2.32,0,0,1,.65.52,2.87,2.87,0,0,0,1.05.74,3.94,3.94,0,0,0,.93.27,3.49,3.49,0,0,0,3.1,1.17l.1,0a5.27,5.27,0,0,0,2.42.68,3,3,0,0,0,1.4.39,4.12,4.12,0,0,0,.62,0l.1,0a2.79,2.79,0,0,0,1.87,0l.87,0a4.12,4.12,0,0,0,1.22,0,5,5,0,0,0,.85,0c.42-.07.85-.15,1.27-.26a11.88,11.88,0,0,0,1.19-.38h0a4.39,4.39,0,0,0,1.39-.18,3.9,3.9,0,0,0,1.08.16,2.72,2.72,0,0,0,2.17-1h.26a3.35,3.35,0,0,0,1.59-.35,2.52,2.52,0,0,0,.35.3l.31-.75a3,3,0,0,0,.42-.45l.08,0a3.14,3.14,0,0,0,1.37-.89,3.41,3.41,0,0,0,1.05-.93,2.57,2.57,0,0,0,.87-.37,2.74,2.74,0,0,0,1.12-1.41,2.76,2.76,0,0,0,1.22-.85,5.61,5.61,0,0,0,.38-.51,2.64,2.64,0,0,0,.63-.66l.1-.14a2.73,2.73,0,0,0,1-1,2.68,2.68,0,0,0,.41-1.45,1.46,1.46,0,0,0,0-.36,3.28,3.28,0,0,0,.37-.65h.18c.08-.13.16-.27.22-.39a8.19,8.19,0,0,0,1.06-1,1.54,1.54,0,0,1,.56-.34,3.07,3.07,0,0,0,.68-.39,12.1,12.1,0,0,1,3.5-1.21,9.43,9.43,0,0,0,1.49.06,3.84,3.84,0,0,0,1.05.21,4.1,4.1,0,0,0,1.74-.32l.36-.16.1,0a8.74,8.74,0,0,0,1.25.42,4.15,4.15,0,0,0,1.43.66l.51.11a5.87,5.87,0,0,0,1.42.75,8.86,8.86,0,0,0,1,.29,5.32,5.32,0,0,0,.85.54l.12.07a5.75,5.75,0,0,0,.91,1.23,3.23,3.23,0,0,0,.45.38c.05.14.11.27.15.36l1.72,3c.11.18.94,1.22,1.08,1.39a3,3,0,0,0,1.21,1,3.11,3.11,0,0,0,1.12,1.51,2.94,2.94,0,0,0,.87.43,3.94,3.94,0,0,0,1.05,1,3.59,3.59,0,0,0,1.37,1l.08.05a3.45,3.45,0,0,0,2.66,1.46l.26,0a3,3,0,0,0,2.18,1.13,4,4,0,0,0,1.07-.08,4.88,4.88,0,0,0,1.39.3h0q.55.25,1.2.48a11.84,11.84,0,0,0,1.26.35,4.54,4.54,0,0,0,.85.1,4,4,0,0,0,1.22.12l.87,0a2.94,2.94,0,0,0,1.87.12l.1,0a5.77,5.77,0,0,0,.62.09,2.64,2.64,0,0,0,1.39-.29,5,5,0,0,0,2.42-.47.26.26,0,0,1,.1,0,5,5,0,0,0,.54.07,3.16,3.16,0,0,0,2.56-1,4.2,4.2,0,0,0,.92-.2,2.57,2.57,0,0,0,1.05-.66,2.05,2.05,0,0,1,.65-.46,8.79,8.79,0,0,0,2.19-1.37,1.53,1.53,0,0,0,.19-.18,2.59,2.59,0,0,0,1.51-1,2.26,2.26,0,0,0,.26-.42,4.44,4.44,0,0,0,.62-.45c.16-.12.31-.25.47-.39l.54-.24c1.21-.76.53-.32,1.5-1.33a2.39,2.39,0,0,0,.31-.45,2.24,2.24,0,0,0,.75-.72c.3-.62,1.54-1.47,1.67-2.31a.65.65,0,0,0,0-.14,9.62,9.62,0,0,0,.74-.68,1.4,1.4,0,0,1,.56-.31A3.44,3.44,0,0,0,359,95a2.59,2.59,0,0,0,1.48-.6,2.67,2.67,0,0,0,2-.47,9.64,9.64,0,0,0,1.49.12,3.44,3.44,0,0,0,1,.25,3.88,3.88,0,0,0,1.74-.25l.36-.14.1,0a8.09,8.09,0,0,0,1.24.47,4.28,4.28,0,0,0,1.43.72l.51.14a6.88,6.88,0,0,0,1.42.8c.31.12.64.23,1,.33a5.48,5.48,0,0,0,.85.57l.12.07a6,6,0,0,0,.91,1.27,3.08,3.08,0,0,0,.7.56,2.93,2.93,0,0,0,.36.76,3.24,3.24,0,0,0,.8.85,3.41,3.41,0,0,0,.31.49,5,5,0,0,0,2.61,2.5l.54.33c0,.57.49.43.47.47-.08.21.4.39.62.55a3,3,0,0,0,.26.46,3.3,3.3,0,0,0,1.5,1.22c.07.07.13.15.19.2a10.6,10.6,0,0,0,2.19,1.73,2.58,2.58,0,0,1,.65.57,3.25,3.25,0,0,0,1,.83,4.69,4.69,0,0,0,.92.35,3.72,3.72,0,0,0,2.55,1.4,4.87,4.87,0,0,0,.54,0l.1.06a5.64,5.64,0,0,0,2.42.86,3.09,3.09,0,0,0,1.39.51,4.32,4.32,0,0,0,.62,0l.1,0a2.86,2.86,0,0,0,1.86.18l.86.12a4,4,0,0,0,1.22.08,4.66,4.66,0,0,0,.85,0,10.79,10.79,0,0,0,1.26-.14,12.2,12.2,0,0,0,1.19-.29h0a4.32,4.32,0,0,0,1.39-.07,4,4,0,0,0,1.07.25,2.52,2.52,0,0,0,2.16-.77l.26,0a2.91,2.91,0,0,0,2.66-1l.08,0a2.8,2.8,0,0,0,1.36-.78,3,3,0,0,0,1.05-.85,2.42,2.42,0,0,0,.87-.29,2.45,2.45,0,0,0,1.11-1.32,2.51,2.51,0,0,0,1.21-.75,5.31,5.31,0,0,0,.38-.48,2.43,2.43,0,0,0,.63-.61.71.71,0,0,0,.1-.14,1.92,1.92,0,0,0,.92-.77,2.9,2.9,0,0,0,.48-1.51,1.23,1.23,0,0,0,.47-.49c.09-.23.11-.54.21-.85a7,7,0,0,0,1.06-.88,1.39,1.39,0,0,1,.56-.29,2.82,2.82,0,0,0,.67-.34,2.5,2.5,0,0,0,1.47-.54,2.59,2.59,0,0,0,2-.39,9.63,9.63,0,0,0,1.48.18,3.86,3.86,0,0,0,1,.3,4,4,0,0,0,1.74-.18l.35-.13s.08,0,.1.05a8.35,8.35,0,0,0,1.24.52,4.85,4.85,0,0,0,1.43.78l.51.15a6.27,6.27,0,0,0,1.41.86,9.47,9.47,0,0,0,1,.37,5.72,5.72,0,0,0,.85.61l.12.08a6.07,6.07,0,0,0,.9,1.3,3.56,3.56,0,0,0,.45.42l.15.37,1.71,3.13c.11.18.93,1.28,1.07,1.47a3.48,3.48,0,0,0,1.21,1.05,3.5,3.5,0,0,0,1.11,1.6,3.44,3.44,0,0,0,.87.5,4.19,4.19,0,0,0,1.05,1.1,3.67,3.67,0,0,0,1.35,1.11l.08.06a3.81,3.81,0,0,0,2.65,1.68l.26,0a3.32,3.32,0,0,0,2.16,1.3,3.5,3.5,0,0,0,1.07,0,4.74,4.74,0,0,0,1.38.41h0a12,12,0,0,0,1.19.58,12.61,12.61,0,0,0,1.25.46,5.1,5.1,0,0,0,.85.17,4.32,4.32,0,0,0,1.21.22l.87.09a2.89,2.89,0,0,0,1.85.28l.1,0a4,4,0,0,0,.62.14,2.56,2.56,0,0,0,1.38-.17,4.75,4.75,0,0,0,2.41-.28l.1,0c.18,0,.36.09.54.12a2.88,2.88,0,0,0,2.53-.79,3.57,3.57,0,0,0,.92-.12,2.36,2.36,0,0,0,1-.57,1.89,1.89,0,0,1,.65-.42,7.86,7.86,0,0,0,2.18-1.18l.19-.17a2.27,2.27,0,0,0,1.49-.85,1.84,1.84,0,0,0,.26-.4A3.31,3.31,0,0,0,476,116l.47-.36a4.3,4.3,0,0,0,.54-.2c1.2-.65.52-.27,1.49-1.2a2.78,2.78,0,0,0,.31-.43,2,2,0,0,0,.74-.66c.3-.6,1.53-1.34,1.66-2.17a1.15,1.15,0,0,0,0-.26,3.88,3.88,0,0,0,.45-1.32A4.52,4.52,0,0,0,482.31,108.2Z"/></svg>