<svg id="ad555c0b-ad0b-41ed-9376-d75dbca9d2a3" data-name="圖層 1" xmlns="http://www.w3.org/2000/svg" viewBox="0 0 1364.83 607.32"><defs><style>.a7e71563-d732-4b6d-b5be-d8729d325b48{fill:none;stroke:#040000;stroke-linecap:round;stroke-linejoin:round;stroke-width:6.32px;}.b8bf4f7c-10a5-4098-938f-ba89ac6be52a{fill:#040000;}</style></defs><path class="a7e71563-d732-4b6d-b5be-d8729d325b48" d="M155.69,272.71c.77-18.56,14.13-35.59,19.6-41.81a1.58,1.58,0,0,0-1.2-2.63c-17.83-.07-29,10-34.37,16.68a4.76,4.76,0,0,1-7.47-.08c-7.89-10.19-27.64-27.68-44.75-27.68C41.05,216,10.4,252.56,5.13,268.91c-1.33,4.12-2.29,7.27,0,12.14,8.6,18.27,35.92,52.9,82.37,51.73,17.11,0,36.86-17.49,44.75-27.68a4.76,4.76,0,0,1,7.47-.08c5.42,6.7,16.54,16.75,34.37,16.68a1.58,1.58,0,0,0,1.2-2.63c-5.47-6.23-18.83-23.25-19.6-41.82Z" transform="translate(-0.59 -2.34)"/><path class="a7e71563-d732-4b6d-b5be-d8729d325b48" d="M37.29,317.24S72,277.93,38.78,230.91" transform="translate(-0.59 -2.34)"/><line class="a7e71563-d732-4b6d-b5be-d8729d325b48" x1="52.53" y1="272.65" x2="87.28" y2="272.65"/><circle class="b8bf4f7c-10a5-4098-938f-ba89ac6be52a" cx="33.63" cy="270.21" r="4"/><path class="a7e71563-d732-4b6d-b5be-d8729d325b48" d="M372.28,324.1c.77-18.56,14.14-35.58,19.61-41.81a1.59,1.59,0,0,0-1.2-2.63c-17.83-.07-28.95,10-34.38,16.68a4.76,4.76,0,0,1-7.47-.08c-7.89-10.19-27.64-27.68-44.75-27.68C257.64,267.41,227,304,221.73,320.31c-1.33,4.11-2.3,7.26,0,12.13,8.59,18.27,35.91,52.9,82.36,51.73,17.11,0,36.86-17.49,44.75-27.68a4.76,4.76,0,0,1,7.47-.08c5.43,6.7,16.55,16.75,34.38,16.68a1.59,1.59,0,0,0,1.2-2.63c-5.47-6.23-18.84-23.25-19.61-41.81Z" transform="translate(-0.59 -2.34)"/><path class="a7e71563-d732-4b6d-b5be-d8729d325b48" d="M253.88,368.64s34.66-39.32,1.49-86.34" transform="translate(-0.59 -2.34)"/><line class="a7e71563-d732-4b6d-b5be-d8729d325b48" x1="269.12" y1="324.04" x2="303.87" y2="324.04"/><circle class="b8bf4f7c-10a5-4098-938f-ba89ac6be52a" cx="250.22" cy="321.61" r="4"/><path class="a7e71563-d732-4b6d-b5be-d8729d325b48" d="M553,430.62c.77-18.56,14.14-35.59,19.61-41.82a1.59,1.59,0,0,0-1.2-2.63c-17.84-.06-28.95,10-34.38,16.68a4.76,4.76,0,0,1-7.47-.07c-7.89-10.2-27.64-27.69-44.75-27.69-46.45-1.17-77.09,35.37-82.37,51.73-1.32,4.12-2.29,7.27,0,12.14,8.6,18.26,35.92,52.9,82.37,51.72,17.11,0,36.86-17.48,44.75-27.68a4.75,4.75,0,0,1,7.47-.07c5.43,6.69,16.54,16.74,34.38,16.68a1.59,1.59,0,0,0,1.2-2.63c-5.47-6.23-18.84-23.26-19.61-41.82Z" transform="translate(-0.59 -2.34)"/><path class="a7e71563-d732-4b6d-b5be-d8729d325b48" d="M434.6,475.15s34.66-39.32,1.49-86.33" transform="translate(-0.59 -2.34)"/><line class="a7e71563-d732-4b6d-b5be-d8729d325b48" x1="449.84" y1="430.55" x2="484.59" y2="430.55"/><circle class="b8bf4f7c-10a5-4098-938f-ba89ac6be52a" cx="430.94" cy="428.12" r="4"/><path class="a7e71563-d732-4b6d-b5be-d8729d325b48" d="M570.85,266.82c.59-14.15,10.77-27.12,14.95-31.87a1.21,1.21,0,0,0-.92-2,33.12,33.12,0,0,0-26.2,12.71,3.62,3.62,0,0,1-5.69-.06c-6-7.77-21.07-21.1-34.11-21.1-35.4-.89-58.76,27-62.78,39.43-1,3.13-1.75,5.54,0,9.25,6.56,13.92,27.38,40.31,62.78,39.42,13,0,28.09-13.33,34.11-21.1a3.62,3.62,0,0,1,5.69-.05,33.14,33.14,0,0,0,26.2,12.71,1.22,1.22,0,0,0,.92-2c-4.18-4.74-14.36-17.72-14.95-31.87Z" transform="translate(-0.59 -2.34)"/><path class="a7e71563-d732-4b6d-b5be-d8729d325b48" d="M480.61,300.76s26.42-30,1.14-65.8" transform="translate(-0.59 -2.34)"/><line class="a7e71563-d732-4b6d-b5be-d8729d325b48" x1="492.09" y1="266.21" x2="518.57" y2="266.21"/><circle class="b8bf4f7c-10a5-4098-938f-ba89ac6be52a" cx="477.68" cy="264.36" r="3.05"/><path class="a7e71563-d732-4b6d-b5be-d8729d325b48" d="M516.4,141.5c.77-18.56,14.13-35.59,19.6-41.81a1.59,1.59,0,0,0-1.2-2.63C517,97,505.85,107,500.42,113.74a4.76,4.76,0,0,1-7.47-.08C485.07,103.47,465.32,86,448.21,86c-46.45-1.17-77.1,35.37-82.37,51.72-1.33,4.12-2.29,7.27,0,12.14,8.6,18.27,35.92,52.9,82.37,51.73,17.11,0,36.86-17.49,44.74-27.68a4.76,4.76,0,0,1,7.47-.08c5.43,6.7,16.55,16.75,34.38,16.68a1.59,1.59,0,0,0,1.2-2.63c-5.47-6.23-18.83-23.25-19.6-41.82Z" transform="translate(-0.59 -2.34)"/><path class="a7e71563-d732-4b6d-b5be-d8729d325b48" d="M398,186s34.66-39.31,1.49-86.33" transform="translate(-0.59 -2.34)"/><line class="a7e71563-d732-4b6d-b5be-d8729d325b48" x1="413.24" y1="141.44" x2="447.98" y2="141.44"/><circle class="b8bf4f7c-10a5-4098-938f-ba89ac6be52a" cx="394.34" cy="139" r="4"/><path class="a7e71563-d732-4b6d-b5be-d8729d325b48" d="M751.92,201.23c.66-15.77,12-30.23,16.66-35.53a1.35,1.35,0,0,0-1-2.23,36.94,36.94,0,0,0-29.21,14.17,4,4,0,0,1-6.35-.06c-6.7-8.66-23.48-23.52-38-23.52-39.46-1-65.5,30.05-70,43.95-1.13,3.49-2,6.17,0,10.31,7.31,15.52,30.52,44.94,70,44,14.54,0,31.32-14.86,38-23.52a4,4,0,0,1,6.35-.07,36.94,36.94,0,0,0,29.21,14.18,1.35,1.35,0,0,0,1-2.24c-4.65-5.29-16-19.76-16.66-35.53Z" transform="translate(-0.59 -2.34)"/><path class="a7e71563-d732-4b6d-b5be-d8729d325b48" d="M651.32,239.07s29.45-33.4,1.27-73.35" transform="translate(-0.59 -2.34)"/><line class="a7e71563-d732-4b6d-b5be-d8729d325b48" x1="664.18" y1="200.83" x2="693.71" y2="200.83"/><circle class="b8bf4f7c-10a5-4098-938f-ba89ac6be52a" cx="648.12" cy="198.76" r="3.4"/><path class="a7e71563-d732-4b6d-b5be-d8729d325b48" d="M893.41,319.43c.71-17.06,13-32.7,18-38.42a1.47,1.47,0,0,0-1.11-2.42c-16.38-.06-26.6,9.17-31.58,15.32a4.36,4.36,0,0,1-6.86-.06c-7.25-9.37-25.39-25.44-41.11-25.44-42.68-1.07-70.83,32.5-75.68,47.53-1.22,3.78-2.1,6.67,0,11.15,7.9,16.78,33,48.59,75.68,47.52,15.72,0,33.86-16.07,41.11-25.43a4.37,4.37,0,0,1,6.86-.07c5,6.15,15.2,15.38,31.58,15.32a1.46,1.46,0,0,0,1.11-2.41c-5-5.73-17.31-21.37-18-38.42Z" transform="translate(-0.59 -2.34)"/><path class="a7e71563-d732-4b6d-b5be-d8729d325b48" d="M784.64,360.34S816.48,324.22,786,281" transform="translate(-0.59 -2.34)"/><line class="a7e71563-d732-4b6d-b5be-d8729d325b48" x1="798.59" y1="319.17" x2="830.51" y2="319.17"/><circle class="b8bf4f7c-10a5-4098-938f-ba89ac6be52a" cx="781.23" cy="316.94" r="3.67"/><path class="a7e71563-d732-4b6d-b5be-d8729d325b48" d="M308.16,464.67c.87-21,16-40.24,22.17-47.28a1.79,1.79,0,0,0-1.36-3c-20.16-.08-32.73,11.28-38.87,18.86a5.38,5.38,0,0,1-8.45-.09c-8.91-11.52-31.24-31.3-50.59-31.3-52.52-1.32-87.17,40-93.13,58.49-1.5,4.65-2.59,8.21,0,13.72,9.72,20.65,40.61,59.81,93.13,58.49,19.35,0,41.68-19.78,50.59-31.3a5.38,5.38,0,0,1,8.45-.09c6.14,7.57,18.71,18.94,38.87,18.86a1.79,1.79,0,0,0,1.36-3c-6.19-7-21.3-26.3-22.17-47.28Z" transform="translate(-0.59 -2.34)"/><path class="a7e71563-d732-4b6d-b5be-d8729d325b48" d="M174.29,515s39.19-44.45,1.68-97.61" transform="translate(-0.59 -2.34)"/><line class="a7e71563-d732-4b6d-b5be-d8729d325b48" x1="191.6" y1="464.9" x2="230.88" y2="464.9"/><circle class="b8bf4f7c-10a5-4098-938f-ba89ac6be52a" cx="170.23" cy="462.15" r="4.52"/><path class="a7e71563-d732-4b6d-b5be-d8729d325b48" d="M778.62,451.25C779.46,431,794,412.48,800,405.69a1.73,1.73,0,0,0-1.31-2.86c-19.42-.07-31.54,10.87-37.45,18.17a5.18,5.18,0,0,1-8.14-.08c-8.59-11.11-30.11-30.16-48.75-30.16-50.61-1.28-84,38.53-89.74,56.36-1.44,4.48-2.5,7.91,0,13.22,9.37,19.9,39.13,57.63,89.74,56.35,18.64,0,40.16-19.05,48.75-30.15a5.18,5.18,0,0,1,8.14-.09c5.91,7.3,18,18.25,37.45,18.18a1.73,1.73,0,0,0,1.31-2.87c-6-6.79-20.52-25.34-21.36-45.56Z" transform="translate(-0.59 -2.34)"/><path class="a7e71563-d732-4b6d-b5be-d8729d325b48" d="M649.63,499.77s37.76-42.83,1.62-94.06" transform="translate(-0.59 -2.34)"/><line class="a7e71563-d732-4b6d-b5be-d8729d325b48" x1="666.28" y1="451.39" x2="704.14" y2="451.39"/><circle class="b8bf4f7c-10a5-4098-938f-ba89ac6be52a" cx="645.69" cy="448.74" r="4.36"/><path class="a7e71563-d732-4b6d-b5be-d8729d325b48" d="M958.52,546.41c.78-18.57,14.14-35.59,19.61-41.82a1.59,1.59,0,0,0-1.2-2.63c-17.83-.07-28.95,10-34.38,16.68a4.76,4.76,0,0,1-7.47-.08c-7.88-10.19-27.63-27.68-44.74-27.68-46.46-1.17-77.1,35.37-82.37,51.73-1.33,4.11-2.29,7.26,0,12.14,8.6,18.26,35.91,52.89,82.37,51.72,17.11,0,36.86-17.49,44.74-27.68a4.76,4.76,0,0,1,7.47-.08c5.43,6.7,16.55,16.75,34.38,16.68a1.59,1.59,0,0,0,1.2-2.63c-5.47-6.22-18.83-23.25-19.61-41.81Z" transform="translate(-0.59 -2.34)"/><path class="a7e71563-d732-4b6d-b5be-d8729d325b48" d="M840.13,590.94s34.66-39.32,1.49-86.33" transform="translate(-0.59 -2.34)"/><line class="a7e71563-d732-4b6d-b5be-d8729d325b48" x1="855.37" y1="546.34" x2="890.11" y2="546.34"/><circle class="b8bf4f7c-10a5-4098-938f-ba89ac6be52a" cx="836.47" cy="543.91" r="4"/><path class="a7e71563-d732-4b6d-b5be-d8729d325b48" d="M1105.43,391.25c.63-15,11.42-28.75,15.85-33.78a1.29,1.29,0,0,0-1-2.13,35.14,35.14,0,0,0-27.77,13.48,3.85,3.85,0,0,1-6-.06c-6.37-8.24-22.32-22.37-36.15-22.37-37.53-.95-62.29,28.58-66.55,41.79-1.07,3.33-1.85,5.87,0,9.81,7,14.76,29,42.74,66.55,41.79,13.83,0,29.78-14.13,36.15-22.36a3.84,3.84,0,0,1,6-.06,35.11,35.11,0,0,0,27.77,13.47,1.28,1.28,0,0,0,1-2.12c-4.43-5-15.22-18.79-15.85-33.79Z" transform="translate(-0.59 -2.34)"/><path class="a7e71563-d732-4b6d-b5be-d8729d325b48" d="M1009.77,427.23s28-31.76,1.21-69.75" transform="translate(-0.59 -2.34)"/><line class="a7e71563-d732-4b6d-b5be-d8729d325b48" x1="1021.97" y1="390.75" x2="1050.05" y2="390.75"/><circle class="b8bf4f7c-10a5-4098-938f-ba89ac6be52a" cx="1006.7" cy="388.78" r="3.23"/><path class="a7e71563-d732-4b6d-b5be-d8729d325b48" d="M1018,200.12c.77-18.56,14.13-35.59,19.61-41.81a1.59,1.59,0,0,0-1.21-2.63c-17.83-.07-28.94,10-34.37,16.68a4.76,4.76,0,0,1-7.47-.08C986.7,162.09,967,144.6,949.84,144.6c-46.45-1.17-77.09,35.37-82.37,51.72-1.32,4.12-2.29,7.27,0,12.14,8.6,18.27,35.92,52.9,82.37,51.73,17.11,0,36.86-17.49,44.75-27.68a4.76,4.76,0,0,1,7.47-.08c5.43,6.7,16.54,16.75,34.37,16.68a1.59,1.59,0,0,0,1.21-2.63c-5.48-6.23-18.84-23.25-19.61-41.82Z" transform="translate(-0.59 -2.34)"/><path class="a7e71563-d732-4b6d-b5be-d8729d325b48" d="M899.63,244.65s34.66-39.31,1.49-86.33" transform="translate(-0.59 -2.34)"/><line class="a7e71563-d732-4b6d-b5be-d8729d325b48" x1="914.87" y1="200.06" x2="949.62" y2="200.06"/><circle class="b8bf4f7c-10a5-4098-938f-ba89ac6be52a" cx="895.97" cy="197.62" r="4"/><path class="a7e71563-d732-4b6d-b5be-d8729d325b48" d="M867.47,69.12c.88-21.26,16.18-40.76,22.45-47.89a1.82,1.82,0,0,0-1.38-3c-20.42-.08-33.15,11.43-39.36,19.1a5.45,5.45,0,0,1-8.56-.09c-9-11.67-31.65-31.7-51.24-31.7C736.18,4.19,701.09,46,695.05,64.77c-1.52,4.71-2.63,8.32,0,13.9,9.85,20.92,41.13,60.58,94.33,59.24,19.59,0,42.21-20,51.24-31.7a5.44,5.44,0,0,1,8.56-.09c6.21,7.67,18.94,19.18,39.36,19.1a1.82,1.82,0,0,0,1.38-3c-6.27-7.13-21.57-26.63-22.45-47.89Z" transform="translate(-0.59 -2.34)"/><path class="a7e71563-d732-4b6d-b5be-d8729d325b48" d="M731.88,120.12s39.69-45,1.7-98.87" transform="translate(-0.59 -2.34)"/><line class="a7e71563-d732-4b6d-b5be-d8729d325b48" x1="749.41" y1="69.38" x2="789.21" y2="69.38"/><circle class="b8bf4f7c-10a5-4098-938f-ba89ac6be52a" cx="727.77" cy="66.6" r="4.58"/><path class="a7e71563-d732-4b6d-b5be-d8729d325b48" d="M1232.23,185.77c.62-15,11.42-28.76,15.84-33.79a1.29,1.29,0,0,0-1-2.13,35.12,35.12,0,0,0-27.77,13.48,3.84,3.84,0,0,1-6-.06c-6.37-8.24-22.33-22.37-36.15-22.37-37.53-.94-62.29,28.58-66.55,41.8-1.07,3.32-1.85,5.87,0,9.8,7,14.76,29,42.74,66.55,41.8,13.82,0,29.78-14.13,36.15-22.37a3.84,3.84,0,0,1,6-.06,35.09,35.09,0,0,0,27.77,13.47,1.28,1.28,0,0,0,1-2.12c-4.42-5-15.22-18.79-15.84-33.79Z" transform="translate(-0.59 -2.34)"/><path class="a7e71563-d732-4b6d-b5be-d8729d325b48" d="M1136.57,221.74s28-31.76,1.2-69.75" transform="translate(-0.59 -2.34)"/><line class="a7e71563-d732-4b6d-b5be-d8729d325b48" x1="1148.77" y1="185.26" x2="1176.84" y2="185.26"/><circle class="b8bf4f7c-10a5-4098-938f-ba89ac6be52a" cx="1133.5" cy="183.3" r="3.23"/><path class="a7e71563-d732-4b6d-b5be-d8729d325b48" d="M1323.16,329.63c.78-18.56,14.14-35.59,19.61-41.82a1.59,1.59,0,0,0-1.2-2.63c-17.83-.06-29,10-34.38,16.68a4.75,4.75,0,0,1-7.47-.07c-7.88-10.2-27.63-27.68-44.75-27.68-46.45-1.18-77.09,35.36-82.36,51.72-1.33,4.12-2.3,7.27,0,12.14,8.6,18.27,35.91,52.9,82.36,51.73,17.12,0,36.87-17.49,44.75-27.69a4.76,4.76,0,0,1,7.47-.07c5.43,6.7,16.55,16.74,34.38,16.68a1.59,1.59,0,0,0,1.2-2.63c-5.47-6.23-18.83-23.26-19.61-41.82Z" transform="translate(-0.59 -2.34)"/><path class="a7e71563-d732-4b6d-b5be-d8729d325b48" d="M1204.77,374.16s34.66-39.31,1.48-86.33" transform="translate(-0.59 -2.34)"/><line class="a7e71563-d732-4b6d-b5be-d8729d325b48" x1="1220" y1="329.56" x2="1254.75" y2="329.56"/><circle class="b8bf4f7c-10a5-4098-938f-ba89ac6be52a" cx="1201.1" cy="327.13" r="4"/><path class="a7e71563-d732-4b6d-b5be-d8729d325b48" d="M1338.66,496.16c.91-21.89,16.67-42,23.12-49.32a1.87,1.87,0,0,0-1.41-3.1c-21-.08-34.15,11.77-40.55,19.67a5.6,5.6,0,0,1-8.81-.09c-9.3-12-32.59-32.65-52.77-32.65-54.78-1.38-90.92,41.72-97.14,61-1.57,4.85-2.71,8.57,0,14.31,10.14,21.55,42.36,62.39,97.14,61,20.18,0,43.47-20.63,52.77-32.65a5.61,5.61,0,0,1,8.81-.09c6.4,7.9,19.52,19.75,40.55,19.67a1.87,1.87,0,0,0,1.41-3.1c-6.45-7.34-22.21-27.42-23.12-49.32Z" transform="translate(-0.59 -2.34)"/><path class="a7e71563-d732-4b6d-b5be-d8729d325b48" d="M1199,548.68s40.88-46.37,1.76-101.82" transform="translate(-0.59 -2.34)"/><line class="a7e71563-d732-4b6d-b5be-d8729d325b48" x1="1217.1" y1="496.5" x2="1258.08" y2="496.5"/><circle class="b8bf4f7c-10a5-4098-938f-ba89ac6be52a" cx="1194.81" cy="493.63" r="4.72"/><path class="a7e71563-d732-4b6d-b5be-d8729d325b48" d="M289.82,157.46c.64-15.3,11.66-29.34,16.17-34.48a1.3,1.3,0,0,0-1-2.16,35.85,35.85,0,0,0-28.35,13.75,3.92,3.92,0,0,1-6.16-.06c-6.5-8.41-22.78-22.83-36.89-22.83-38.31-1-63.57,29.17-67.92,42.65-1.09,3.4-1.89,6,0,10C172.77,179.4,195.29,208,233.6,207c14.11,0,30.39-14.42,36.89-22.82a3.92,3.92,0,0,1,6.16-.07A35.86,35.86,0,0,0,305,197.86a1.31,1.31,0,0,0,1-2.17c-4.51-5.14-15.53-19.18-16.17-34.48Z" transform="translate(-0.59 -2.34)"/><path class="a7e71563-d732-4b6d-b5be-d8729d325b48" d="M192.2,194.18s28.58-32.41,1.22-71.18" transform="translate(-0.59 -2.34)"/><line class="a7e71563-d732-4b6d-b5be-d8729d325b48" x1="204.66" y1="157" x2="233.31" y2="157"/><circle class="b8bf4f7c-10a5-4098-938f-ba89ac6be52a" cx="189.07" cy="154.99" r="3.3"/></svg>