<svg width="84" height="94" viewBox="0 0 84 94" fill="none" xmlns="http://www.w3.org/2000/svg">
<g clip-path="url(#clip0_4915_1296)">
<path d="M2.79189 40.1658V2.54898C2.79188 2.15441 2.94782 1.77583 3.22572 1.49573C3.50363 1.21564 3.88098 1.05673 4.27553 1.05365H6.34329C6.63655 1.05078 6.92213 1.1474 7.1534 1.32775C7.38467 1.5081 7.54797 1.76152 7.61665 2.04664L8.45778 5.39945C8.64463 6.16397 8.7349 6.94891 8.72647 7.73589L8.16572 56.1237C8.16572 56.1237 8.65638 93.0747 46.5302 84.9205C47.3065 84.7467 48.1198 84.8761 48.8039 85.2822C49.4879 85.6882 49.991 86.3403 50.2101 87.1051C50.2045 87.1711 50.2045 87.2376 50.2101 87.3037C50.3543 88.0184 50.2426 88.7611 49.8945 89.4018C49.5464 90.0425 48.9841 90.5404 48.3059 90.8083C42.9372 92.96 37.1029 93.6852 31.3708 92.9134C25.6387 92.1417 20.204 89.8991 15.5956 86.4041C-1.89269 73.6822 2.14937 44.5466 2.7218 40.9602C2.76882 40.698 2.79228 40.4322 2.79189 40.1658Z" fill="#58BB93" stroke="#040000" stroke-width="1.43" stroke-miterlimit="10"/>
<path d="M9.47429 39.4415C9.47429 39.4415 3.07242 40.0256 1.88083 41.0186C0.689241 42.0116 0.992979 48.028 1.88083 48.6705C2.76868 49.313 9.1355 49.2196 9.1355 49.2196L9.47429 39.4415Z" fill="#58BB93" stroke="#040000" stroke-width="1.43" stroke-miterlimit="10"/>
<path opacity="0.3" d="M46.6704 44.6635C45.0922 44.1431 43.3849 44.1678 41.8223 44.7336C38.8179 45.896 36.3055 48.0577 34.7078 50.8551C30.6775 57.3738 22.5817 58.5186 18.3527 55.528C14.1237 52.5373 8.56297 44.5467 15.3153 36.7896C22.0676 29.0326 46.5653 27.6308 55.8644 29.8387C65.5139 32.1167 74.2055 36.556 75.0583 42.6892C76.098 50.2359 70.3854 57.7242 60.2919 56.3574C52.6985 55.3527 53.306 46.8013 46.6704 44.6635Z" fill="#7FCBD2"/>
<path d="M79.5676 41.1354C79.5676 41.1354 82.7919 40.7733 83.0723 41.591C83.3527 42.4088 82.9321 49.3714 81.8106 49.7686C81.4423 49.8862 81.0543 49.9293 80.6691 49.8952C80.284 49.8611 79.9095 49.7505 79.5676 49.57V41.1354Z" fill="#58BB93" stroke="#040000" stroke-width="1.43" stroke-miterlimit="10"/>
<path opacity="0.2" d="M38.8434 29.1494L31.3551 38.0046C31.1161 38.2874 30.9424 38.6194 30.8462 38.977C30.75 39.3345 30.7336 39.7089 30.7983 40.0735C30.8629 40.438 31.007 40.7839 31.2204 41.0866C31.4337 41.3892 31.711 41.6412 32.0326 41.8246C32.2225 41.9297 32.3883 42.0735 32.5193 42.2465C32.6502 42.4196 32.7435 42.6182 32.793 42.8295C32.8426 43.0409 32.8473 43.2602 32.8068 43.4734C32.7664 43.6867 32.6818 43.8891 32.5583 44.0676L23.7266 57.0817" stroke="#DDF0FA" stroke-width="4.77" stroke-linecap="round" stroke-linejoin="round"/>
<path opacity="0.2" d="M64.9299 34.1261L61.6472 38.0046C61.4087 38.2882 61.2357 38.6209 61.1403 38.979C61.045 39.337 61.0297 39.7117 61.0954 40.0764C61.1612 40.441 61.3065 40.7867 61.521 41.0889C61.7355 41.391 62.0139 41.6423 62.3364 41.8247C62.525 41.9311 62.6894 42.0754 62.8194 42.2486C62.9493 42.4218 63.0419 42.6201 63.0913 42.8309C63.1407 43.0417 63.1459 43.2604 63.1064 43.4733C63.067 43.6862 62.9838 43.8886 62.8621 44.0677L56.0046 54.1611" stroke="#DDF0FA" stroke-width="4.77" stroke-linecap="round" stroke-linejoin="round"/>
<path d="M76.7523 36.1471C72.3831 31.778 62.7336 25.6331 42.1612 25.4112C21.5887 25.1892 11.6939 34.1612 11.6939 34.1612C10.5256 35.1191 4.91817 48.6471 13.1425 56.4275C20.4439 63.3317 27.3481 62.8878 36.6939 58.1214C44.6962 54.0326 44.6495 54.0443 51.4135 57.8177C54.9831 59.9045 59.0689 60.9424 63.2017 60.8122C67.3344 60.682 71.3468 59.389 74.778 57.0817C82.3247 51.8714 81.1331 40.5163 76.7523 36.1471ZM60.257 56.3808C52.6985 55.3527 53.306 46.8013 46.6705 44.6985C45.0922 44.1782 43.3849 44.2029 41.8224 44.7686C38.8234 45.9222 36.3118 48.0709 34.7079 50.8551C30.6775 57.3738 22.5817 58.5186 18.3527 55.528C14.1238 52.5373 8.56303 44.5467 15.3154 36.7897C22.0677 29.0327 46.5654 27.6308 55.8644 29.8387C65.514 32.1168 74.2055 36.556 75.0583 42.6892C76.063 50.2593 70.3621 57.7476 60.257 56.3808Z" fill="#58BB93" stroke="#040000" stroke-width="1.43" stroke-miterlimit="10"/>
</g>
<defs>
<clipPath id="clip0_4915_1296">
<rect width="83.6098" height="93.7734" fill="white" transform="translate(0.280273 0.224243)"/>
</clipPath>
</defs>
</svg>
