<svg id="visual" viewBox="0 0 900 600" width="900" height="600" xmlns="http://www.w3.org/2000/svg" xmlns:xlink="http://www.w3.org/1999/xlink" version="1.1"><path d="M0 481L25 486C50 491 100 501 150 500.8C200 500.7 250 490.3 300 489.8C350 489.3 400 498.7 450 510.3C500 522 550 536 600 532C650 528 700 506 750 494C800 482 850 480 875 479L900 478L900 601L875 601C850 601 800 601 750 601C700 601 650 601 600 601C550 601 500 601 450 601C400 601 350 601 300 601C250 601 200 601 150 601C100 601 50 601 25 601L0 601Z" fill="#0ea5e9" stroke-linecap="round" stroke-linejoin="miter"></path></svg>